<svg xmlns="http://www.w3.org/2000/svg" xmlns:xlink="http://www.w3.org/1999/xlink" width="118" height="118" viewBox="0 0 118 118">
  <defs>
    <filter id="Trazado_982547" x="0" y="0" width="118" height="118" filterUnits="userSpaceOnUse">
      <feOffset dy="3" input="SourceAlpha"/>
      <feGaussianBlur stdDeviation="3" result="blur"/>
      <feFlood flood-opacity="0.161"/>
      <feComposite operator="in" in2="blur"/>
      <feComposite in="SourceGraphic"/>
    </filter>
  </defs>
  <g id="Grupo_1227329" data-name="Grupo 1227329" transform="translate(-321.125 -3859.125)">
    <g id="Grupo_1226984" data-name="Grupo 1226984" transform="translate(-3.645 878.429)">
      <g id="Grupo_1211203" data-name="Grupo 1211203" transform="translate(333.77 2986.695)">
        <g id="Grupo_1210937" data-name="Grupo 1210937" transform="translate(0 0)">
          <g id="Grupo_1174742" data-name="Grupo 1174742" transform="translate(0)">
            <g id="Grupo_1163948" data-name="Grupo 1163948">
              <g id="Grupo_1158168" data-name="Grupo 1158168">
                <g id="Grupo_1152576" data-name="Grupo 1152576">
                  <g id="Grupo_1148633" data-name="Grupo 1148633">
                    <g id="Grupo_1148525" data-name="Grupo 1148525">
                      <g transform="matrix(1, 0, 0, 1, -9, -6)" filter="url(#Trazado_982547)">
                        <g id="Trazado_982547-2" data-name="Trazado 982547" transform="translate(9 6)" fill="#fdf6e4">
                          <path d="M 49.99996948242188 98.49993896484375 C 43.45185470581055 98.49993896484375 37.10041046142578 97.21781158447266 31.12205505371094 94.68918609619141 C 25.34689712524414 92.24649810791016 20.15995597839355 88.749267578125 15.70531272888184 84.29462432861328 C 11.25066947937012 79.83998107910156 7.753440856933594 74.65303802490234 5.310755252838135 68.87788391113281 C 2.782126665115356 62.89952850341797 1.499998092651367 56.5480842590332 1.499998092651367 49.99996948242188 C 1.499998092651367 43.45185470581055 2.782126665115356 37.10041046142578 5.310755252838135 31.12205505371094 C 7.753440856933594 25.34689712524414 11.25066947937012 20.15995597839355 15.70531272888184 15.70531272888184 C 20.15995597839355 11.25066947937012 25.34689712524414 7.753440856933594 31.12205505371094 5.310755252838135 C 37.10041046142578 2.782126665115356 43.45185470581055 1.499998092651367 49.99996948242188 1.499998092651367 C 56.5480842590332 1.499998092651367 62.89952850341797 2.782126665115356 68.87788391113281 5.310755252838135 C 74.65303802490234 7.753440856933594 79.83998107910156 11.25066947937012 84.29462432861328 15.70531272888184 C 88.749267578125 20.15995597839355 92.24649810791016 25.34689712524414 94.68918609619141 31.12205505371094 C 97.21781158447266 37.10041046142578 98.49993896484375 43.45185470581055 98.49993896484375 49.99996948242188 C 98.49993896484375 56.5480842590332 97.21781158447266 62.89952850341797 94.68918609619141 68.87788391113281 C 92.24649810791016 74.65303802490234 88.749267578125 79.83998107910156 84.29462432861328 84.29462432861328 C 79.83998107910156 88.749267578125 74.65303802490234 92.24649810791016 68.87788391113281 94.68918609619141 C 62.89952850341797 97.21781158447266 56.5480842590332 98.49993896484375 49.99996948242188 98.49993896484375 Z" stroke="none"/>
                          <path d="M 49.99996948242188 3 C 43.65369415283203 3 37.49884796142578 4.242263793945312 31.70638275146484 6.6922607421875 C 26.11001586914062 9.059326171875 21.08333587646484 12.44861602783203 16.76596832275391 16.76596832275391 C 12.44861602783203 21.08333587646484 9.059326171875 26.11001586914062 6.6922607421875 31.70638275146484 C 4.242263793945312 37.49884796142578 3 43.65369415283203 3 49.99996948242188 C 3 56.34624481201172 4.242263793945312 62.50109100341797 6.6922607421875 68.29355621337891 C 9.059326171875 73.88992309570312 12.44861602783203 78.91660308837891 16.76596832275391 83.23397064208984 C 21.08333587646484 87.55132293701172 26.11001586914062 90.94061279296875 31.70638275146484 93.30767822265625 C 37.49884796142578 95.75767517089844 43.65369415283203 96.99993896484375 49.99996948242188 96.99993896484375 C 56.34624481201172 96.99993896484375 62.50109100341797 95.75767517089844 68.29355621337891 93.30767822265625 C 73.88992309570312 90.94061279296875 78.91660308837891 87.55132293701172 83.23397064208984 83.23397064208984 C 87.55132293701172 78.91660308837891 90.94061279296875 73.88992309570312 93.30767822265625 68.29355621337891 C 95.75767517089844 62.50109100341797 96.99993896484375 56.34624481201172 96.99993896484375 49.99996948242188 C 96.99993896484375 43.65369415283203 95.75767517089844 37.49884796142578 93.30767822265625 31.70638275146484 C 90.94061279296875 26.11001586914062 87.55132293701172 21.08333587646484 83.23397064208984 16.76596832275391 C 78.91660308837891 12.44861602783203 73.88992309570312 9.059326171875 68.29355621337891 6.6922607421875 C 62.50109100341797 4.242263793945312 56.34624481201172 3 49.99996948242188 3 M 49.99996948242188 0 C 77.61418151855469 0 99.99993896484375 22.38575744628906 99.99993896484375 49.99996948242188 C 99.99993896484375 77.61418151855469 77.61418151855469 99.99993896484375 49.99996948242188 99.99993896484375 C 22.38575744628906 99.99993896484375 0 77.61418151855469 0 49.99996948242188 C 0 22.38575744628906 22.38575744628906 0 49.99996948242188 0 Z" stroke="none" fill="#f5b104"/>
                        </g>
                      </g>
                    </g>
                  </g>
                </g>
              </g>
            </g>
          </g>
        </g>
      </g>
    </g>
    <g id="logotipo-de-apple" transform="translate(351.776 3880.908)">
      <g id="Grupo_1227328" data-name="Grupo 1227328" transform="translate(2.104)">
        <path id="Trazado_1058107" data-name="Trazado 1058107" d="M23.863,0h.458a13.787,13.787,0,0,1-3.472,10.39c-2.067,2.44-4.9,4.806-9.474,4.447A13.373,13.373,0,0,1,14.909,4.77,15.265,15.265,0,0,1,23.863,0Z" transform="translate(14.772)" fill="#0b0a0a"/>
        <path id="Trazado_1058108" data-name="Trazado 1058108" d="M54.594,37.226v.127a37.46,37.46,0,0,1-5.36,10.334c-2.044,2.813-4.549,6.6-9.022,6.6-3.865,0-6.432-2.485-10.393-2.553-4.19-.068-6.494,2.078-10.325,2.618H18.188c-2.813-.407-5.083-2.635-6.737-4.642A40.672,40.672,0,0,1,2.1,26.31V23.429c.3-7.017,3.707-12.723,8.239-15.488a13.913,13.913,0,0,1,9.341-2.163A23.5,23.5,0,0,1,24.261,7.09c1.332.512,3,1.419,4.574,1.371a10.981,10.981,0,0,0,3.209-.981C35.2,6.341,38.293,5.035,42.369,5.648c4.9.741,8.377,2.918,10.526,6.276-4.145,2.638-7.421,6.613-6.862,13.4C46.531,31.492,50.116,35.1,54.594,37.226Z" transform="translate(-2.104 10.034)" fill="#0b0a0a"/>
      </g>
    </g>
  </g>
</svg>
