<svg xmlns="http://www.w3.org/2000/svg" xmlns:xlink="http://www.w3.org/1999/xlink" width="118" height="118" viewBox="0 0 118 118">
  <defs>
    <filter id="Trazado_982547" x="0" y="0" width="118" height="118" filterUnits="userSpaceOnUse">
      <feOffset dy="3" input="SourceAlpha"/>
      <feGaussianBlur stdDeviation="3" result="blur"/>
      <feFlood flood-opacity="0.161"/>
      <feComposite operator="in" in2="blur"/>
      <feComposite in="SourceGraphic"/>
    </filter>
  </defs>
  <g id="Grupo_1227354" data-name="Grupo 1227354" transform="translate(-741 -3859.125)">
    <g id="Grupo_1227352" data-name="Grupo 1227352">
      <g id="Grupo_1226985" data-name="Grupo 1226985" transform="translate(-2.02 878.429)">
        <g id="Grupo_1211204" data-name="Grupo 1211204" transform="translate(752.021 2986.695)">
          <g id="Grupo_1210937" data-name="Grupo 1210937" transform="translate(0 0)">
            <g id="Grupo_1174742" data-name="Grupo 1174742" transform="translate(0)">
              <g id="Grupo_1163948" data-name="Grupo 1163948">
                <g id="Grupo_1158168" data-name="Grupo 1158168">
                  <g id="Grupo_1152576" data-name="Grupo 1152576">
                    <g id="Grupo_1148633" data-name="Grupo 1148633">
                      <g id="Grupo_1148525" data-name="Grupo 1148525">
                        <g transform="matrix(1, 0, 0, 1, -9, -6)" filter="url(#Trazado_982547)">
                          <g id="Trazado_982547-2" data-name="Trazado 982547" transform="translate(9 6)" fill="#fdf6e4">
                            <path d="M 49.99996948242188 98.49993896484375 C 43.45185470581055 98.49993896484375 37.10041046142578 97.21781158447266 31.12205505371094 94.68918609619141 C 25.34689712524414 92.24649810791016 20.15995597839355 88.749267578125 15.70531272888184 84.29462432861328 C 11.25066947937012 79.83998107910156 7.753440856933594 74.65303802490234 5.310755252838135 68.87788391113281 C 2.782126665115356 62.89952850341797 1.499998092651367 56.5480842590332 1.499998092651367 49.99996948242188 C 1.499998092651367 43.45185470581055 2.782126665115356 37.10041046142578 5.310755252838135 31.12205505371094 C 7.753440856933594 25.34689712524414 11.25066947937012 20.15995597839355 15.70531272888184 15.70531272888184 C 20.15995597839355 11.25066947937012 25.34689712524414 7.753440856933594 31.12205505371094 5.310755252838135 C 37.10041046142578 2.782126665115356 43.45185470581055 1.499998092651367 49.99996948242188 1.499998092651367 C 56.5480842590332 1.499998092651367 62.89952850341797 2.782126665115356 68.87788391113281 5.310755252838135 C 74.65303802490234 7.753440856933594 79.83998107910156 11.25066947937012 84.29462432861328 15.70531272888184 C 88.749267578125 20.15995597839355 92.24649810791016 25.34689712524414 94.68918609619141 31.12205505371094 C 97.21781158447266 37.10041046142578 98.49993896484375 43.45185470581055 98.49993896484375 49.99996948242188 C 98.49993896484375 56.5480842590332 97.21781158447266 62.89952850341797 94.68918609619141 68.87788391113281 C 92.24649810791016 74.65303802490234 88.749267578125 79.83998107910156 84.29462432861328 84.29462432861328 C 79.83998107910156 88.749267578125 74.65303802490234 92.24649810791016 68.87788391113281 94.68918609619141 C 62.89952850341797 97.21781158447266 56.5480842590332 98.49993896484375 49.99996948242188 98.49993896484375 Z" stroke="none"/>
                            <path d="M 49.99996948242188 3 C 43.65369415283203 3 37.49884796142578 4.242263793945312 31.70638275146484 6.6922607421875 C 26.11001586914062 9.059326171875 21.08333587646484 12.44861602783203 16.76596832275391 16.76596832275391 C 12.44861602783203 21.08333587646484 9.059326171875 26.11001586914062 6.6922607421875 31.70638275146484 C 4.242263793945312 37.49884796142578 3 43.65369415283203 3 49.99996948242188 C 3 56.34624481201172 4.242263793945312 62.50109100341797 6.6922607421875 68.29355621337891 C 9.059326171875 73.88992309570312 12.44861602783203 78.91660308837891 16.76596832275391 83.23397064208984 C 21.08333587646484 87.55132293701172 26.11001586914062 90.94061279296875 31.70638275146484 93.30767822265625 C 37.49884796142578 95.75767517089844 43.65369415283203 96.99993896484375 49.99996948242188 96.99993896484375 C 56.34624481201172 96.99993896484375 62.50109100341797 95.75767517089844 68.29355621337891 93.30767822265625 C 73.88992309570312 90.94061279296875 78.91660308837891 87.55132293701172 83.23397064208984 83.23397064208984 C 87.55132293701172 78.91660308837891 90.94061279296875 73.88992309570312 93.30767822265625 68.29355621337891 C 95.75767517089844 62.50109100341797 96.99993896484375 56.34624481201172 96.99993896484375 49.99996948242188 C 96.99993896484375 43.65369415283203 95.75767517089844 37.49884796142578 93.30767822265625 31.70638275146484 C 90.94061279296875 26.11001586914062 87.55132293701172 21.08333587646484 83.23397064208984 16.76596832275391 C 78.91660308837891 12.44861602783203 73.88992309570312 9.059326171875 68.29355621337891 6.6922607421875 C 62.50109100341797 4.242263793945312 56.34624481201172 3 49.99996948242188 3 M 49.99996948242188 0 C 77.61418151855469 0 99.99993896484375 22.38575744628906 99.99993896484375 49.99996948242188 C 99.99993896484375 77.61418151855469 77.61418151855469 99.99993896484375 49.99996948242188 99.99993896484375 C 22.38575744628906 99.99993896484375 0 77.61418151855469 0 49.99996948242188 C 0 22.38575744628906 22.38575744628906 0 49.99996948242188 0 Z" stroke="none" fill="#f5b104"/>
                          </g>
                        </g>
                      </g>
                    </g>
                  </g>
                </g>
              </g>
            </g>
          </g>
        </g>
      </g>
    </g>
    <g id="telefono-movil_1_" data-name="telefono-movil (1)" transform="translate(774.82 3881.168)">
      <path id="Trazado_1058128" data-name="Trazado 1058128" d="M39.467,0H10.893A4.943,4.943,0,0,0,5.951,4.947V62.971a4.94,4.94,0,0,0,4.942,4.942H39.467a4.943,4.943,0,0,0,4.942-4.942V4.947A4.946,4.946,0,0,0,39.467,0ZM18.129,3H32.236c.356,0,.646.532.646,1.19s-.29,1.193-.646,1.193H18.129c-.359,0-.643-.535-.643-1.193S17.771,3,18.129,3ZM25.182,63.03a3.155,3.155,0,1,1,3.15-3.158A3.16,3.16,0,0,1,25.182,63.03ZM40.707,52.218H9.656V8.347H40.707v43.87Z" fill="#0b0a0a"/>
    </g>
  </g>
</svg>
