<svg xmlns="http://www.w3.org/2000/svg" xmlns:xlink="http://www.w3.org/1999/xlink" width="113" height="113" viewBox="0 0 113 113">
  <defs>
    <filter id="Trazado_982547" x="0" y="0" width="113" height="113" filterUnits="userSpaceOnUse">
      <feOffset dy="3" input="SourceAlpha"/>
      <feGaussianBlur stdDeviation="3" result="blur"/>
      <feFlood flood-opacity="0.161"/>
      <feComposite operator="in" in2="blur"/>
      <feComposite in="SourceGraphic"/>
    </filter>
  </defs>
  <g id="Grupo_1227431" data-name="Grupo 1227431" transform="translate(-586.75 -4920.73)">
    <g id="Grupo_1227041" data-name="Grupo 1227041" transform="translate(315 3640.746)">
      <g id="Grupo_1211033" data-name="Grupo 1211033" transform="translate(0 -167.853)">
        <g id="Grupo_1210937" data-name="Grupo 1210937" transform="translate(15.75 621.587)">
          <g id="Grupo_1174742" data-name="Grupo 1174742" transform="translate(-16 -280.75)">
            <g id="Grupo_1163948" data-name="Grupo 1163948" transform="translate(0 -1371)">
              <g id="Grupo_1158168" data-name="Grupo 1158168" transform="translate(281 2484)">
                <g id="Grupo_1152576" data-name="Grupo 1152576" transform="translate(0)">
                  <g id="Grupo_1148633" data-name="Grupo 1148633">
                    <g id="Grupo_1148525" data-name="Grupo 1148525">
                      <g transform="matrix(1, 0, 0, 1, -9, -6)" filter="url(#Trazado_982547)">
                        <g id="Trazado_982547-2" data-name="Trazado 982547" transform="translate(9 6)" fill="#fdf6e4">
                          <path d="M 47.5 93.5 C 41.28937149047852 93.5 35.26533508300781 92.28397369384766 29.59518623352051 89.88570404052734 C 24.11771965026855 87.56893157958984 19.19813346862793 84.25196075439453 14.97309303283691 80.02691650390625 C 10.74804019927979 75.80186462402344 7.431066513061523 70.88229370117188 5.114293098449707 65.40481567382812 C 2.716026782989502 59.73468017578125 1.5 53.71062850952148 1.5 47.5 C 1.5 41.28937149047852 2.716026782989502 35.26533508300781 5.114293098449707 29.59518623352051 C 7.431066513061523 24.11771965026855 10.74804019927979 19.19813346862793 14.97309303283691 14.97309303283691 C 19.19813346862793 10.74804019927979 24.11771965026855 7.431066513061523 29.59518623352051 5.114293098449707 C 35.26533508300781 2.716026782989502 41.28937149047852 1.5 47.5 1.5 C 53.71062850952148 1.5 59.73468017578125 2.716026782989502 65.40481567382812 5.114293098449707 C 70.88229370117188 7.431066513061523 75.80186462402344 10.74804019927979 80.02691650390625 14.97309303283691 C 84.25196075439453 19.19813346862793 87.56893157958984 24.11771965026855 89.88570404052734 29.59518623352051 C 92.28397369384766 35.26533508300781 93.5 41.28937149047852 93.5 47.5 C 93.5 53.71062850952148 92.28397369384766 59.73468017578125 89.88570404052734 65.40481567382812 C 87.56893157958984 70.88229370117188 84.25196075439453 75.80186462402344 80.02691650390625 80.02691650390625 C 75.80186462402344 84.25196075439453 70.88229370117188 87.56893157958984 65.40481567382812 89.88570404052734 C 59.73468017578125 92.28397369384766 53.71062850952148 93.5 47.5 93.5 Z" stroke="none"/>
                          <path d="M 47.5 3 C 41.49121475219727 3 35.66376876831055 4.176155090332031 30.17950439453125 6.495796203613281 C 24.88084411621094 8.736953735351562 20.12152099609375 11.94598388671875 16.03375244140625 16.03375244140625 C 11.94598388671875 20.12152099609375 8.736953735351562 24.88084411621094 6.495796203613281 30.17950439453125 C 4.176155090332031 35.66376876831055 3 41.49121475219727 3 47.5 C 3 53.50878524780273 4.176155090332031 59.33623123168945 6.495796203613281 64.82049560546875 C 8.736953735351562 70.11915588378906 11.94598388671875 74.87847900390625 16.03375244140625 78.96624755859375 C 20.12152099609375 83.05401611328125 24.88084411621094 86.26304626464844 30.17950439453125 88.50419616699219 C 35.66376876831055 90.82384490966797 41.49121475219727 92 47.5 92 C 53.50878524780273 92 59.33623123168945 90.82384490966797 64.82049560546875 88.50419616699219 C 70.11915588378906 86.26304626464844 74.87847900390625 83.05401611328125 78.96624755859375 78.96624755859375 C 83.05401611328125 74.87847900390625 86.26304626464844 70.11915588378906 88.50419616699219 64.82049560546875 C 90.82384490966797 59.33623123168945 92 53.50878524780273 92 47.5 C 92 41.49121475219727 90.82384490966797 35.66376876831055 88.50419616699219 30.17950439453125 C 86.26304626464844 24.88084411621094 83.05401611328125 20.12152099609375 78.96624755859375 16.03375244140625 C 74.87847900390625 11.94598388671875 70.11915588378906 8.736953735351562 64.82049560546875 6.495796203613281 C 59.33623123168945 4.176155090332031 53.50878524780273 3 47.5 3 M 47.5 0 C 73.7335205078125 0 95 21.2664794921875 95 47.5 C 95 73.7335205078125 73.7335205078125 95 47.5 95 C 21.2664794921875 95 0 73.7335205078125 0 47.5 C 0 21.2664794921875 21.2664794921875 0 47.5 0 Z" stroke="none" fill="#f5b104"/>
                        </g>
                      </g>
                    </g>
                  </g>
                </g>
              </g>
            </g>
          </g>
        </g>
      </g>
    </g>
    <g id="Layer_1" transform="translate(353.336 4338.5)">
      <g id="Grupo_1227429" data-name="Grupo 1227429" transform="translate(259 617)">
        <g id="Grupo_1227425" data-name="Grupo 1227425" transform="translate(0 0)">
          <path id="Trazado_1058703" data-name="Trazado 1058703" d="M2445.616,2500.073h-1.629a1.087,1.087,0,0,1,0-2.173h1.629a1.087,1.087,0,0,1,0,2.173Z" transform="translate(-2403.678 -2464.12)" fill-rule="evenodd"/>
          <path id="Trazado_1058704" data-name="Trazado 1058704" d="M2775.116,2500.073h-1.629a1.087,1.087,0,1,1,0-2.173h1.629a1.087,1.087,0,0,1,0,2.173Z" transform="translate(-2727.261 -2464.12)" fill-rule="evenodd"/>
          <path id="Trazado_1058705" data-name="Trazado 1058705" d="M3097.938,2500.073h-1.751a1.087,1.087,0,1,1,0-2.173h1.737a1.089,1.089,0,0,1,1.086,1.086A1.078,1.078,0,0,1,3097.938,2500.073Z" transform="translate(-3044.165 -2464.12)" fill-rule="evenodd"/>
          <path id="Trazado_1058706" data-name="Trazado 1058706" d="M1502.133,2701.032a1.08,1.08,0,0,1-.8-1.3l1.968-8.2a1.081,1.081,0,0,1,2.1.5l-1.969,8.2A1.068,1.068,0,0,1,1502.133,2701.032Z" transform="translate(-1478.992 -2653.461)" fill-rule="evenodd"/>
          <path id="Trazado_1058707" data-name="Trazado 1058707" d="M2164.523,2699.724l-1.67-8.2a1.08,1.08,0,1,1,2.117-.433l1.67,8.2a1.08,1.08,0,0,1-2.117.433Z" transform="translate(-2128.638 -2652.996)" fill-rule="evenodd"/>
          <path id="Trazado_1058708" data-name="Trazado 1058708" d="M1260.864,3148.473h-22.977a1.087,1.087,0,1,1,0-2.173h22.977a1.087,1.087,0,1,1,0,2.173Z" transform="translate(-1219.239 -3100.875)" fill-rule="evenodd"/>
          <path id="Trazado_1058709" data-name="Trazado 1058709" d="M316.206,656.4H262.121A3.023,3.023,0,0,1,259,653.278v-33.1A3.116,3.116,0,0,1,262.121,617h54.085a3.15,3.15,0,0,1,3.121,3.175v33.1A3.087,3.087,0,0,1,316.206,656.4Zm-54.07-37.214a.937.937,0,0,0-.95,1v33.1a.871.871,0,0,0,.95.95h54.083a.928.928,0,0,0,.95-.95v-33.1a.992.992,0,0,0-.95-1Z" transform="translate(-259 -617)" fill-rule="evenodd"/>
          <path id="Trazado_1058710" data-name="Trazado 1058710" d="M318.928,2307.373H260.787a1.087,1.087,0,0,1,0-2.173h58.142a1.087,1.087,0,1,1,0,2.173Z" transform="translate(-259.688 -2274.881)" fill-rule="evenodd"/>
          <path id="Trazado_1058711" data-name="Trazado 1058711" d="M463.984,998.347a9.97,9.97,0,0,1-1.914-.462,1.523,1.523,0,0,1-1.126-1.641l.122-1.153a6.534,6.534,0,0,1-.842-.652l-1.072.42a1.531,1.531,0,0,1-1.873-.664l-.787-1.358a1.51,1.51,0,0,1,.366-1.954l.9-.72a7.111,7.111,0,0,1-.137-1.058l-1.058-.462a1.521,1.521,0,0,1-.855-1.792l.408-1.519a1.531,1.531,0,0,1,1.629-1.126l1.14.122a6.529,6.529,0,0,1,.652-.842l-.42-1.087a1.531,1.531,0,0,1,.664-1.873l1.358-.787a1.51,1.51,0,0,1,1.954.366l.72.9a6.9,6.9,0,0,1,1.045-.136l.462-1.058a1.507,1.507,0,0,1,1.792-.855l1.519.408a1.517,1.517,0,0,1,1.126,1.629l-.122,1.153a6.539,6.539,0,0,1,.842.652l1.072-.42a1.51,1.51,0,0,1,1.873.664l.787,1.358a1.53,1.53,0,0,1-.366,1.954l-.9.72a7.1,7.1,0,0,1,.137,1.058l1.058.462a1.52,1.52,0,0,1,.855,1.792l-.408,1.519a1.517,1.517,0,0,1-1.629,1.126l-1.153-.122a6.529,6.529,0,0,1-.652.842l.42,1.087a1.51,1.51,0,0,1-.679,1.873l-1.343.774a1.53,1.53,0,0,1-1.954-.366l-.72-.9a6.9,6.9,0,0,1-1.045.137l-.462,1.058A1.477,1.477,0,0,1,463.984,998.347Zm-.815-2.4.447.122.53-1.18a1.085,1.085,0,0,1,1.031-.652,5.213,5.213,0,0,0,1.819-.244,1.1,1.1,0,0,1,1.167.352l.814,1,.408-.23-.462-1.209a1.07,1.07,0,0,1,.271-1.18,5.521,5.521,0,0,0,1.113-1.453,1.067,1.067,0,0,1,1.072-.569l1.289.136.122-.447-1.18-.53a1.085,1.085,0,0,1-.652-1.031,5.215,5.215,0,0,0-.244-1.819,1.124,1.124,0,0,1,.352-1.167l1-.814-.23-.408-1.209.462a1.07,1.07,0,0,1-1.18-.271A5.457,5.457,0,0,0,468,983.7a1.067,1.067,0,0,1-.569-1.072l.136-1.29-.447-.122-.53,1.18a1.085,1.085,0,0,1-1.031.652,5.215,5.215,0,0,0-1.819.244,1.1,1.1,0,0,1-1.167-.352l-.814-1-.408.23.462,1.209a1.07,1.07,0,0,1-.271,1.18,5.522,5.522,0,0,0-1.113,1.453,1.067,1.067,0,0,1-1.072.569l-1.289-.136-.122.447,1.18.53a1.085,1.085,0,0,1,.652,1.031,5.216,5.216,0,0,0,.244,1.819,1.124,1.124,0,0,1-.352,1.167l-1,.814.23.408,1.209-.462a1.065,1.065,0,0,1,1.18.271,5.52,5.52,0,0,0,1.453,1.113,1.067,1.067,0,0,1,.569,1.072Z" transform="translate(-452.122 -972.398)" fill-rule="evenodd"/>
          <path id="Trazado_1058712" data-name="Trazado 1058712" d="M772.006,1301.957a4.14,4.14,0,0,1-1.072-.136,4.075,4.075,0,1,1,3.109-.393A4.3,4.3,0,0,1,772.006,1301.957Zm-.014-6.04a1.861,1.861,0,0,0-.964.259,1.94,1.94,0,0,0-.9,1.167,1.9,1.9,0,0,0,.19,1.465,1.94,1.94,0,0,0,1.167.9,1.9,1.9,0,0,0,1.465-.19,1.941,1.941,0,0,0,.9-1.167,1.9,1.9,0,0,0-.19-1.466,1.941,1.941,0,0,0-1.167-.9A2.073,2.073,0,0,0,771.992,1295.917Z" transform="translate(-758.759 -1281.598)" fill-rule="evenodd"/>
        </g>
        <g id="Grupo_1227426" data-name="Grupo 1227426" transform="translate(25.012 11.549)">
          <path id="Trazado_1058713" data-name="Trazado 1058713" d="M1660.89,1271.8a1.09,1.09,0,0,1-1.087-1.087v-5.645l-2.037,3.407a1.08,1.08,0,0,1-1.859,0l-2.035-3.407v5.647a1.087,1.087,0,0,1-2.173,0v-9.569a1.089,1.089,0,0,1,2.022-.557l3.121,5.212,3.121-5.212a1.07,1.07,0,0,1,1.221-.489,1.09,1.09,0,0,1,.8,1.045v9.569A1.108,1.108,0,0,1,1660.89,1271.8Z" transform="translate(-1651.7 -1260.061)" fill-rule="evenodd"/>
        </g>
        <g id="Grupo_1227427" data-name="Grupo 1227427" transform="translate(48.627 11.548)">
          <path id="Trazado_1058714" data-name="Trazado 1058714" d="M2967.687,1271.742a1.09,1.09,0,0,1-1.086-1.087v-9.569a1.087,1.087,0,1,1,2.173,0v9.569A1.081,1.081,0,0,1,2967.687,1271.742Z" transform="translate(-2966.6 -1260)" fill-rule="evenodd"/>
        </g>
        <g id="Grupo_1227428" data-name="Grupo 1227428" transform="translate(48.627 11.546)">
          <path id="Trazado_1058715" data-name="Trazado 1058715" d="M2971.215,1267.016h-3.529a1.087,1.087,0,0,1,0-2.173h3.529a1.385,1.385,0,1,0,0-2.77h-3.529a1.086,1.086,0,0,1,0-2.173h3.529a3.558,3.558,0,0,1,0,7.115Z" transform="translate(-2966.6 -1259.9)" fill-rule="evenodd"/>
        </g>
        <path id="Trazado_1058716" data-name="Trazado 1058716" d="M2291.91,1271.861a1.089,1.089,0,0,1-.991-.638l-4.3-9.569a1.087,1.087,0,1,1,1.98-.9l3.312,7.356,3.312-7.356a1.087,1.087,0,1,1,1.98.9l-4.3,9.569A1.091,1.091,0,0,1,2291.91,1271.861Z" transform="translate(-2250.108 -1248.571)" fill-rule="evenodd"/>
      </g>
      <g id="Grupo_1227430" data-name="Grupo 1227430" transform="translate(261.186 619.186)">
        <path id="Trazado_1058717" data-name="Trazado 1058717" d="M892.06,1416.73a1.9,1.9,0,0,0-.19-1.465,1.942,1.942,0,0,0-1.167-.9,2.1,2.1,0,0,0-.5-.068,1.86,1.86,0,0,0-.964.259,1.942,1.942,0,0,0-.9,1.167,1.9,1.9,0,0,0,.19,1.465,1.941,1.941,0,0,0,1.167.9,1.9,1.9,0,0,0,1.465-.19A1.923,1.923,0,0,0,892.06,1416.73Z" transform="translate(-879.154 -1402.167)" fill="#a6f5ff" fill-rule="evenodd"/>
        <path id="Trazado_1058718" data-name="Trazado 1058718" d="M591.682,1111.675a4.056,4.056,0,0,1,2.484,1.915,4.121,4.121,0,0,1-1.507,5.619,4.3,4.3,0,0,1-2.037.53,4.146,4.146,0,0,1-1.072-.136,4.1,4.1,0,0,1,2.132-7.927Zm-2.281,10.192a1.085,1.085,0,0,1,1.031-.652,5.218,5.218,0,0,0,1.819-.244,1.1,1.1,0,0,1,1.167.352l.813,1,.408-.23-.462-1.209a1.07,1.07,0,0,1,.271-1.18,5.522,5.522,0,0,0,1.113-1.453,1.067,1.067,0,0,1,1.072-.569l1.289.136.122-.447-1.18-.53a1.085,1.085,0,0,1-.652-1.031,5.209,5.209,0,0,0-.244-1.819,1.125,1.125,0,0,1,.352-1.167l1-.813-.23-.408-1.209.462a1.07,1.07,0,0,1-1.18-.271,5.452,5.452,0,0,0-1.453-1.113,1.067,1.067,0,0,1-.569-1.072l.136-1.289-.447-.122-.53,1.18a1.085,1.085,0,0,1-1.031.652,5.222,5.222,0,0,0-1.819.244,1.1,1.1,0,0,1-1.167-.352l-.814-1-.408.23.461,1.209a1.07,1.07,0,0,1-.271,1.18,5.527,5.527,0,0,0-1.113,1.453,1.067,1.067,0,0,1-1.072.569l-1.29-.136-.122.447,1.18.53a1.085,1.085,0,0,1,.652,1.031,5.217,5.217,0,0,0,.244,1.819,1.124,1.124,0,0,1-.352,1.167l-1,.814.23.408,1.209-.462a1.065,1.065,0,0,1,1.18.271,5.518,5.518,0,0,0,1.453,1.114,1.067,1.067,0,0,1,.569,1.072l-.137,1.289.447.122Z" transform="translate(-579.563 -1101.564)" fill="#f5f5f5" fill-rule="evenodd"/>
        <path id="Trazado_1058719" data-name="Trazado 1058719" d="M405.7,753.073v5.646a1.087,1.087,0,0,1-2.173,0v-9.569a1.089,1.089,0,0,1,2.022-.557l3.121,5.212,3.121-5.212a1.07,1.07,0,0,1,1.221-.488,1.09,1.09,0,0,1,.8,1.045v9.569a1.111,1.111,0,0,1-1.1,1.086,1.09,1.09,0,0,1-1.087-1.086v-5.646l-2.037,3.407a1.081,1.081,0,0,1-1.859,0Zm-5.172-.366a1.521,1.521,0,0,1,.855,1.792l-.408,1.519a1.517,1.517,0,0,1-1.629,1.126l-1.153-.122a6.527,6.527,0,0,1-.652.842l.42,1.086a1.51,1.51,0,0,1-.679,1.873l-1.343.774a1.53,1.53,0,0,1-1.954-.366l-.72-.9a6.91,6.91,0,0,1-1.045.136l-.462,1.058a1.472,1.472,0,0,1-1.385.936,9.99,9.99,0,0,1-1.914-.462,1.523,1.523,0,0,1-1.126-1.641l.122-1.153a6.54,6.54,0,0,1-.842-.652l-1.072.42a1.531,1.531,0,0,1-1.873-.664l-.787-1.358a1.51,1.51,0,0,1,.366-1.954l.9-.72a7.114,7.114,0,0,1-.137-1.058l-1.058-.461a1.521,1.521,0,0,1-.855-1.792l.408-1.519a1.531,1.531,0,0,1,1.629-1.126l1.14.122a6.532,6.532,0,0,1,.652-.842l-.42-1.086a1.531,1.531,0,0,1,.665-1.873l1.358-.787a1.51,1.51,0,0,1,1.954.366l.72.9a6.927,6.927,0,0,1,1.045-.137l.462-1.058a1.507,1.507,0,0,1,1.792-.855l1.519.408a1.517,1.517,0,0,1,1.126,1.629l-.122,1.153a6.529,6.529,0,0,1,.842.652l1.072-.42a1.51,1.51,0,0,1,1.873.664l.787,1.358a1.53,1.53,0,0,1-.366,1.954l-.9.72a7.113,7.113,0,0,1,.136,1.058ZM380.7,766.835h55.985V739.7a.992.992,0,0,0-.95-1H381.65a.937.937,0,0,0-.95,1Zm39.617-7.031a1.089,1.089,0,0,1-.991-.638l-4.3-9.569a1.087,1.087,0,1,1,1.981-.9l3.312,7.356,3.312-7.356a1.087,1.087,0,1,1,1.981.9l-4.3,9.569A1.091,1.091,0,0,1,420.317,759.8Zm6.826-1.086v-9.569a1.089,1.089,0,0,1,1.087-1.086h3.529a3.556,3.556,0,1,1,0,7.112h-2.442v3.542a1.087,1.087,0,0,1-2.173,0Z" transform="translate(-380.7 -738.7)" fill="#a6f5ff" fill-rule="evenodd"/>
        <path id="Trazado_1058720" data-name="Trazado 1058720" d="M3087.6,1381v2.769h2.443a1.385,1.385,0,0,0,0-2.769Z" transform="translate(-3038.986 -1369.465)" fill="#a6f5ff" fill-rule="evenodd"/>
        <path id="Trazado_1058721" data-name="Trazado 1058721" d="M436.683,2426.2H380.7v3.8a.871.871,0,0,0,.95.95h22.16c.043,0,.084,0,.128,0h9.712a1.048,1.048,0,0,1,.282,0h21.8a.928.928,0,0,0,.95-.95Zm-17.861,3.461a1.086,1.086,0,1,1,0-2.173h1.629a1.086,1.086,0,1,1,0,2.173Zm5.918,0a1.086,1.086,0,1,1,0-2.173h1.629a1.086,1.086,0,1,1,0,2.173Zm5.8,0a1.086,1.086,0,1,1,0-2.173h1.737a1.089,1.089,0,0,1,1.087,1.086,1.077,1.077,0,0,1-1.072,1.087Z" transform="translate(-380.7 -2395.893)" fill="#f44335" fill-rule="evenodd"/>
        <path id="Trazado_1058722" data-name="Trazado 1058722" d="M1647.626,2810.8h-8.181l-1.445,6.027h10.853Z" transform="translate(-1615.42 -2773.586)" fill="#f5f5f5" fill-rule="evenodd"/>
        <path id="Trazado_1058723" data-name="Trazado 1058723" d="M3342.05,753.429v13.4h1.866V739.7a.992.992,0,0,0-.95-1H3341.1a.992.992,0,0,1,.95,1v10.113a3.536,3.536,0,0,1,0,3.612Z" transform="translate(-3287.933 -738.7)" fill="#86c7cf" fill-rule="evenodd"/>
        <path id="Trazado_1058724" data-name="Trazado 1058724" d="M3343.916,2426.2h-1.866v3.8a.929.929,0,0,1-.95.95h1.866a.929.929,0,0,0,.95-.95Z" transform="translate(-3287.933 -2395.893)" fill="#c6362b" fill-rule="evenodd"/>
      </g>
    </g>
  </g>
</svg>
