<svg xmlns="http://www.w3.org/2000/svg" xmlns:xlink="http://www.w3.org/1999/xlink" width="113" height="113" viewBox="0 0 113 113">
  <defs>
    <filter id="Trazado_982547" x="0" y="0" width="113" height="113" filterUnits="userSpaceOnUse">
      <feOffset dy="3" input="SourceAlpha"/>
      <feGaussianBlur stdDeviation="3" result="blur"/>
      <feFlood flood-opacity="0.161"/>
      <feComposite operator="in" in2="blur"/>
      <feComposite in="SourceGraphic"/>
    </filter>
  </defs>
  <g id="Grupo_1227433" data-name="Grupo 1227433" transform="translate(-1214.774 -4920.73)">
    <g id="Grupo_1227043" data-name="Grupo 1227043" transform="translate(943.024 3640.746)">
      <g id="Grupo_1211033" data-name="Grupo 1211033" transform="translate(0 -167.853)">
        <g id="Grupo_1210937" data-name="Grupo 1210937" transform="translate(15.75 621.587)">
          <g id="Grupo_1174742" data-name="Grupo 1174742" transform="translate(-16 -280.75)">
            <g id="Grupo_1163948" data-name="Grupo 1163948" transform="translate(0 -1371)">
              <g id="Grupo_1158168" data-name="Grupo 1158168" transform="translate(281 2484)">
                <g id="Grupo_1152576" data-name="Grupo 1152576" transform="translate(0)">
                  <g id="Grupo_1148633" data-name="Grupo 1148633">
                    <g id="Grupo_1148525" data-name="Grupo 1148525">
                      <g transform="matrix(1, 0, 0, 1, -9, -6)" filter="url(#Trazado_982547)">
                        <g id="Trazado_982547-2" data-name="Trazado 982547" transform="translate(9 6)" fill="#fdf6e4">
                          <path d="M 47.5 93.5 C 41.28937149047852 93.5 35.26533508300781 92.28397369384766 29.59518623352051 89.88570404052734 C 24.11771965026855 87.56893157958984 19.19813346862793 84.25196075439453 14.97309303283691 80.02691650390625 C 10.74804019927979 75.80186462402344 7.431066513061523 70.88229370117188 5.114293098449707 65.40481567382812 C 2.716026782989502 59.73468017578125 1.5 53.71062850952148 1.5 47.5 C 1.5 41.28937149047852 2.716026782989502 35.26533508300781 5.114293098449707 29.59518623352051 C 7.431066513061523 24.11771965026855 10.74804019927979 19.19813346862793 14.97309303283691 14.97309303283691 C 19.19813346862793 10.74804019927979 24.11771965026855 7.431066513061523 29.59518623352051 5.114293098449707 C 35.26533508300781 2.716026782989502 41.28937149047852 1.5 47.5 1.5 C 53.71062850952148 1.5 59.73468017578125 2.716026782989502 65.40481567382812 5.114293098449707 C 70.88229370117188 7.431066513061523 75.80186462402344 10.74804019927979 80.02691650390625 14.97309303283691 C 84.25196075439453 19.19813346862793 87.56893157958984 24.11771965026855 89.88570404052734 29.59518623352051 C 92.28397369384766 35.26533508300781 93.5 41.28937149047852 93.5 47.5 C 93.5 53.71062850952148 92.28397369384766 59.73468017578125 89.88570404052734 65.40481567382812 C 87.56893157958984 70.88229370117188 84.25196075439453 75.80186462402344 80.02691650390625 80.02691650390625 C 75.80186462402344 84.25196075439453 70.88229370117188 87.56893157958984 65.40481567382812 89.88570404052734 C 59.73468017578125 92.28397369384766 53.71062850952148 93.5 47.5 93.5 Z" stroke="none"/>
                          <path d="M 47.5 3 C 41.49121475219727 3 35.66376876831055 4.176155090332031 30.17950439453125 6.495796203613281 C 24.88084411621094 8.736953735351562 20.12152099609375 11.94598388671875 16.03375244140625 16.03375244140625 C 11.94598388671875 20.12152099609375 8.736953735351562 24.88084411621094 6.495796203613281 30.17950439453125 C 4.176155090332031 35.66376876831055 3 41.49121475219727 3 47.5 C 3 53.50878524780273 4.176155090332031 59.33623123168945 6.495796203613281 64.82049560546875 C 8.736953735351562 70.11915588378906 11.94598388671875 74.87847900390625 16.03375244140625 78.96624755859375 C 20.12152099609375 83.05401611328125 24.88084411621094 86.26304626464844 30.17950439453125 88.50419616699219 C 35.66376876831055 90.82384490966797 41.49121475219727 92 47.5 92 C 53.50878524780273 92 59.33623123168945 90.82384490966797 64.82049560546875 88.50419616699219 C 70.11915588378906 86.26304626464844 74.87847900390625 83.05401611328125 78.96624755859375 78.96624755859375 C 83.05401611328125 74.87847900390625 86.26304626464844 70.11915588378906 88.50419616699219 64.82049560546875 C 90.82384490966797 59.33623123168945 92 53.50878524780273 92 47.5 C 92 41.49121475219727 90.82384490966797 35.66376876831055 88.50419616699219 30.17950439453125 C 86.26304626464844 24.88084411621094 83.05401611328125 20.12152099609375 78.96624755859375 16.03375244140625 C 74.87847900390625 11.94598388671875 70.11915588378906 8.736953735351562 64.82049560546875 6.495796203613281 C 59.33623123168945 4.176155090332031 53.50878524780273 3 47.5 3 M 47.5 0 C 73.7335205078125 0 95 21.2664794921875 95 47.5 C 95 73.7335205078125 73.7335205078125 95 47.5 95 C 21.2664794921875 95 0 73.7335205078125 0 47.5 C 0 21.2664794921875 21.2664794921875 0 47.5 0 Z" stroke="none" fill="#f5b104"/>
                        </g>
                      </g>
                    </g>
                  </g>
                </g>
              </g>
            </g>
          </g>
        </g>
      </g>
    </g>
    <g id="desarrollador-de-software_6_" data-name="desarrollador-de-software (6)" transform="translate(1239.156 4941.528)">
      <path id="Trazado_1058725" data-name="Trazado 1058725" d="M52,38.612V11H11.091V38.612L7,47.815H56.087Z" transform="translate(0.023 0.227)" fill="#596c80"/>
      <path id="Trazado_1058726" data-name="Trazado 1058726" d="M11,11H51.906V38.612H11Z" transform="translate(0.113 0.227)" fill="#bce1fb"/>
      <path id="Trazado_1058727" data-name="Trazado 1058727" d="M49.581,15.276A3.665,3.665,0,0,1,47.536,12a3.458,3.458,0,0,1,.16-1H41.457a9.574,9.574,0,0,0-.057,1.023,9.75,9.75,0,0,0,3.75,7.67v2.075a6.076,6.076,0,0,0,6.067,6.072V17.376a3.068,3.068,0,0,0-1.636-2.1Z" transform="translate(0.802 0.227)" fill="#b2d5ed"/>
      <path id="Trazado_1058728" data-name="Trazado 1058728" d="M57.9,12.111a6.749,6.749,0,0,0-6.954-6.749A6.823,6.823,0,0,0,44.4,12.132a6.743,6.743,0,0,0,3.75,6.015V21.9a3,3,0,1,0,6,0V18.15a6.742,6.742,0,0,0,3.75-6.04Z" transform="translate(0.87 0.099)" fill="#ffeb8c"/>
      <path id="Trazado_1058729" data-name="Trazado 1058729" d="M54.063,19.33v2.25a3,3,0,1,1-5.993,0V19.33Z" transform="translate(0.953 0.415)" fill="#748ca6"/>
      <path id="Trazado_1058730" data-name="Trazado 1058730" d="M48.865,45.591a1.534,1.534,0,0,0-1.534,1.534V45.079a1.534,1.534,0,1,0-3.068,0V43.034a1.534,1.534,0,1,0-3.068,0v2.021a1.534,1.534,0,1,0-3.068.025V53.26l-1.554-1.312a1.825,1.825,0,0,0-3.211.491,1.87,1.87,0,0,0,.092,1.37L36.2,58.578a3.247,3.247,0,0,0,2.925,1.841v3.068h8.181V60.419A5.829,5.829,0,0,0,50.4,55.306V47.125a1.534,1.534,0,0,0-1.534-1.534Z" transform="translate(0.618 0.917)" fill="#e6cdad"/>
      <path id="Trazado_1058731" data-name="Trazado 1058731" d="M27.276,51.192a1.809,1.809,0,0,0-1.473.757L24.252,53.26V45.079a1.534,1.534,0,1,0-3.068-.025V43.034a1.534,1.534,0,0,0-3.068,0v2.045a1.534,1.534,0,0,0-3.068,0v2.045a1.534,1.534,0,0,0-3.068,0v8.181a5.829,5.829,0,0,0,3.088,5.113v3.068H23.25V60.419a3.247,3.247,0,0,0,2.925-1.841l2.748-4.769a1.87,1.87,0,0,0,.092-1.37,1.8,1.8,0,0,0-1.739-1.248Z" transform="translate(0.135 0.917)" fill="#e6cdad"/>
      <path id="Trazado_1058732" data-name="Trazado 1058732" d="M10.091,11.15V38.545l-4,9.005a1.023,1.023,0,0,0,.935,1.438h4.07v7.159a6.764,6.764,0,0,0,3.088,5.68v2.5h2.045V61.26a1.023,1.023,0,0,0-.511-.887,4.827,4.827,0,0,1-2.577-4.227V47.966a.511.511,0,0,1,1.023,0v3.068h2.045V45.92a.511.511,0,0,1,1.023,0v5.113h2.045V43.875a.511.511,0,1,1,1.023,0v7.159h2.045V45.908a.511.511,0,0,1,1.023.012V54.1a1.023,1.023,0,0,0,1.683.781L26.6,53.57a1.031,1.031,0,0,0,.17-.183.785.785,0,0,1,.642-.331.777.777,0,0,1,.764.535.846.846,0,0,1,0,.55l-2.784,4.829a2.232,2.232,0,0,1-2.006,1.268,1.023,1.023,0,0,0-1.023,1.023v3.068h2.045V62.16A4.206,4.206,0,0,0,27.2,59.931l2.786-4.838a2.888,2.888,0,0,0,.141-2.127,2.848,2.848,0,0,0-4.712-1.125V48.988H37.723v2.85a2.848,2.848,0,0,0-4.714,1.138,2.913,2.913,0,0,0,.181,2.189l2.716,4.7a4.274,4.274,0,0,0,2.819,2.29v2.168H40.77V61.26a1.023,1.023,0,0,0-1.023-1.023,2.269,2.269,0,0,1-2.039-1.329L35,54.209a.832.832,0,0,1-.043-.614.8.8,0,0,1,1.408-.211,1.031,1.031,0,0,0,.17.183l1.551,1.313a1.023,1.023,0,0,0,1.683-.779V45.92a.511.511,0,0,1,1.023-.012v5.126h2.045V43.875a.511.511,0,0,1,1.023,0v7.159H45.9V45.92a.511.511,0,1,1,1.023,0v5.113h2.045V47.966a.511.511,0,0,1,1.023,0v8.181a4.827,4.827,0,0,1-2.577,4.227,1.023,1.023,0,0,0-.511.887v3.068h2.045v-2.5a6.764,6.764,0,0,0,3.088-5.68V48.988h4.07a1.023,1.023,0,0,0,.935-1.438l-4-9.005V25.8a4.019,4.019,0,0,0,3-3.875V18.776a7.767,7.767,0,1,0-11.515-8.664l-33.413.015a1.023,1.023,0,0,0-1.023,1.023ZM54,21.922a1.977,1.977,0,0,1-3.954,0V20.695H54ZM51.842,6.409h.179a5.727,5.727,0,0,1,2.542,10.85,1.023,1.023,0,0,0-.568.915v.478H50.042v-.478a1.023,1.023,0,0,0-.568-.915,5.7,5.7,0,0,1-3.182-5.107,5.829,5.829,0,0,1,5.55-5.743ZM12.136,12.173l32.111-.015A7.724,7.724,0,0,0,48,18.773v3.146A4.019,4.019,0,0,0,51,25.8V37.739H12.136ZM51.355,39.785l3.181,7.159H51.823a2.531,2.531,0,0,0-2.9-1.469,2.557,2.557,0,0,0-2.512-2.111,2.5,2.5,0,0,0-.557.065,2.549,2.549,0,0,0-5.022,0,2.542,2.542,0,0,0-3.111,2.491v1.023H25.41V45.92A2.542,2.542,0,0,0,22.3,43.428a2.549,2.549,0,0,0-5.022,0,2.5,2.5,0,0,0-.557-.065,2.557,2.557,0,0,0-2.512,2.111,2.531,2.531,0,0,0-2.9,1.47H8.6l3.181-7.159Z" transform="translate(0 0.076)"/>
      <path id="Trazado_1058733" data-name="Trazado 1058733" d="M26.109,20.643,21,23.711a1.023,1.023,0,0,0,0,1.753l5.113,3.068,1.053-1.753-3.652-2.192L27.163,22.4Z" transform="translate(0.328 0.445)"/>
      <path id="Trazado_1058734" data-name="Trazado 1058734" d="M41.152,23.711l-5.113-3.068L34.985,22.4l3.652,2.192-3.652,2.192,1.053,1.753,5.113-3.068a1.023,1.023,0,0,0,0-1.753Z" transform="translate(0.657 0.445)"/>
      <path id="Trazado_1058735" data-name="Trazado 1058735" d="M0,0H8.738V2.046H0Z" transform="translate(29.056 28.758) rotate(-69.444)"/>
      <path id="Trazado_1058736" data-name="Trazado 1058736" d="M50,1h2.045V3.25H50Z" transform="translate(0.997)"/>
      <path id="Trazado_1058737" data-name="Trazado 1058737" d="M0,0H2.045V2.25H0Z" transform="translate(43.337 5.022) rotate(-45)"/>
      <path id="Trazado_1058738" data-name="Trazado 1058738" d="M0,0H2.25V2.045H0Z" transform="translate(57.653 5.169) rotate(-45)"/>
    </g>
  </g>
</svg>
