<svg xmlns="http://www.w3.org/2000/svg" xmlns:xlink="http://www.w3.org/1999/xlink" width="103" height="103" viewBox="0 0 103 103">
  <defs>
    <filter id="Trazado_982547" x="0" y="0" width="103" height="103" filterUnits="userSpaceOnUse">
      <feOffset dy="3" input="SourceAlpha"/>
      <feGaussianBlur stdDeviation="3" result="blur"/>
      <feFlood flood-opacity="0.161"/>
      <feComposite operator="in" in2="blur"/>
      <feComposite in="SourceGraphic"/>
    </filter>
  </defs>
  <g id="Grupo_1227359" data-name="Grupo 1227359" transform="translate(-191 -1167.055)">
    <g id="Grupo_1210959" data-name="Grupo 1210959" transform="translate(0 -24.557)">
      <g id="Grupo_1210290" data-name="Grupo 1210290" transform="translate(0 -2868)">
        <g id="Grupo_1207485" data-name="Grupo 1207485" transform="translate(0 396.112)">
          <g id="Grupo_1207313" data-name="Grupo 1207313" transform="translate(0 2919.5)">
            <g id="Grupo_1202212" data-name="Grupo 1202212" transform="translate(-80 -126.414)">
              <g id="Grupo_1174813" data-name="Grupo 1174813" transform="translate(280 876.414)">
                <g id="Grupo_1201680" data-name="Grupo 1201680">
                  <g id="Grupo_1201330" data-name="Grupo 1201330">
                    <g id="Grupo_1172010" data-name="Grupo 1172010">
                      <g id="Grupo_1171046" data-name="Grupo 1171046">
                        <g id="Grupo_1148525" data-name="Grupo 1148525">
                          <g transform="matrix(1, 0, 0, 1, -9, -6)" filter="url(#Trazado_982547)">
                            <g id="Trazado_982547-2" data-name="Trazado 982547" transform="translate(9 6)" fill="#fdf6e4">
                              <path d="M 42.5 83.5 C 36.96437835693359 83.5 31.59512901306152 82.41617584228516 26.54141235351562 80.27863311767578 C 21.65934181213379 78.21369171142578 17.27447128295898 75.25723266601562 13.50862312316895 71.49137878417969 C 9.742764472961426 67.72553253173828 6.786305904388428 63.34066009521484 4.721364498138428 58.45858764648438 C 2.583823442459106 53.40486907958984 1.5 48.03562164306641 1.5 42.5 C 1.5 36.96437835693359 2.583823442459106 31.59512901306152 4.721364498138428 26.54141235351562 C 6.786305904388428 21.65934181213379 9.742764472961426 17.27448272705078 13.50862312316895 13.50862312316895 C 17.27447128295898 9.742776870727539 21.65934181213379 6.786305904388428 26.54141235351562 4.721364498138428 C 31.59512901306152 2.583823442459106 36.96437835693359 1.5 42.5 1.5 C 48.03562164306641 1.5 53.40486907958984 2.583823442459106 58.45858764648438 4.721364498138428 C 63.34066009521484 6.786305904388428 67.72553253173828 9.742776870727539 71.49137878417969 13.50862312316895 C 75.25723266601562 17.27448272705078 78.21369171142578 21.65934181213379 80.27863311767578 26.54141235351562 C 82.41617584228516 31.59512901306152 83.5 36.96437835693359 83.5 42.5 C 83.5 48.03562164306641 82.41617584228516 53.40486907958984 80.27863311767578 58.45858764648438 C 78.21369171142578 63.34066009521484 75.25723266601562 67.72553253173828 71.49137878417969 71.49137878417969 C 67.72553253173828 75.25723266601562 63.34066009521484 78.21369171142578 58.45858764648438 80.27863311767578 C 53.40486907958984 82.41617584228516 48.03562164306641 83.5 42.5 83.5 Z" stroke="none"/>
                              <path d="M 42.5 3 C 37.16621398925781 3 31.99356079101562 4.043960571289062 27.125732421875 6.102882385253906 C 22.42246627807617 8.092185974121094 18.19785308837891 10.94070434570312 14.56928253173828 14.56928253173828 C 10.94070434570312 18.19785308837891 8.092185974121094 22.42246627807617 6.102882385253906 27.125732421875 C 4.043960571289062 31.99356079101562 3 37.16621398925781 3 42.5 C 3 47.83378601074219 4.043960571289062 53.00643920898438 6.102882385253906 57.874267578125 C 8.092185974121094 62.57753372192383 10.94070434570312 66.80214691162109 14.56928253173828 70.43071746826172 C 18.19785308837891 74.05929565429688 22.42246627807617 76.90781402587891 27.125732421875 78.89711761474609 C 31.99356079101562 80.95603942871094 37.16621398925781 82 42.5 82 C 47.83378601074219 82 53.00643920898438 80.95603942871094 57.874267578125 78.89711761474609 C 62.57753372192383 76.90781402587891 66.80214691162109 74.05929565429688 70.43071746826172 70.43071746826172 C 74.05929565429688 66.80214691162109 76.90781402587891 62.57753372192383 78.89711761474609 57.874267578125 C 80.95603942871094 53.00643920898438 82 47.83378601074219 82 42.5 C 82 37.16621398925781 80.95603942871094 31.99356079101562 78.89711761474609 27.125732421875 C 76.90781402587891 22.42246627807617 74.05929565429688 18.19785308837891 70.43071746826172 14.56928253173828 C 66.80214691162109 10.94070434570312 62.57753372192383 8.092185974121094 57.874267578125 6.102882385253906 C 53.00643920898438 4.043960571289062 47.83378601074219 3 42.5 3 M 42.5 0 C 65.97210693359375 0 85 19.02789306640625 85 42.5 C 85 65.97210693359375 65.97210693359375 85 42.5 85 C 19.02789306640625 85 0 65.97210693359375 0 42.5 C 0 19.02789306640625 19.02789306640625 0 42.5 0 Z" stroke="none" fill="#f5b104"/>
                            </g>
                          </g>
                        </g>
                      </g>
                    </g>
                  </g>
                </g>
              </g>
            </g>
          </g>
        </g>
      </g>
    </g>
    <g id="Grupo_1227358" data-name="Grupo 1227358" transform="translate(-964.392 217.255)">
      <g id="android-6" transform="translate(1183.656 973.444)">
        <g id="Grupo_1227321" data-name="Grupo 1227321" transform="translate(0 0.626)">
          <path id="Trazado_1058081" data-name="Trazado 1058081" d="M90.894,207.092a3.249,3.249,0,0,1,3.249,3.249v13.938a3.249,3.249,0,0,1-6.5,0V210.341a3.249,3.249,0,0,1,3.249-3.249Z" transform="translate(-74.987 -176.442)" fill="#a4c639"/>
          <path id="Trazado_1058082" data-name="Trazado 1058082" d="M69.306,133.645c-.011.123-.02.248-.02.374v21.117a4.057,4.057,0,0,0,4.029,4.1H94.79a4.057,4.057,0,0,0,4.029-4.1V134.019c0-.126,0-.251-.015-.374Z" transform="translate(-60.817 -119.752)" fill="#a4c639"/>
          <path id="Trazado_1058083" data-name="Trazado 1058083" d="M62.729,103.4a3.249,3.249,0,0,1,3.249,3.249V120.59a3.249,3.249,0,0,1-6.5,0V106.652a3.249,3.249,0,0,1,3.249-3.249ZM35.413,88.525a3.249,3.249,0,0,1,3.249,3.249v13.938a3.249,3.249,0,1,1-6.5,0V91.774A3.249,3.249,0,0,1,35.413,88.525Zm39.974,0a3.249,3.249,0,0,1,3.249,3.249v13.938a3.249,3.249,0,1,1-6.5,0V91.774A3.249,3.249,0,0,1,75.388,88.525ZM40.748,85.259c.09-6.486,5.752-11.8,13.019-12.506h3.265c7.268.7,12.929,6.02,13.019,12.506Z" transform="translate(-32.164 -72.753)" fill="#a4c639"/>
        </g>
        <path id="Trazado_1058084" data-name="Trazado 1058084" d="M74.743,70.009l3.427,5.937m23.616-5.937-3.428,5.937" transform="translate(-65.028 -70.009)" fill="none" stroke="#a4c639" stroke-linecap="round" stroke-linejoin="round" stroke-width="3"/>
        <path id="Trazado_1058085" data-name="Trazado 1058085" d="M103.5,96.517a1.681,1.681,0,0,1-3.362.009v-.009a1.681,1.681,0,0,1,3.362-.009Zm12.548,0a1.681,1.681,0,0,1-3.362.009v-.009a1.681,1.681,0,0,1,3.362-.009Z" transform="translate(-84.633 -89.199)" fill="#fff"/>
      </g>
    </g>
  </g>
</svg>
