<svg xmlns="http://www.w3.org/2000/svg" xmlns:xlink="http://www.w3.org/1999/xlink" width="103" height="103" viewBox="0 0 103 103">
  <defs>
    <filter id="Trazado_982547" x="0" y="0" width="103" height="103" filterUnits="userSpaceOnUse">
      <feOffset dy="3" input="SourceAlpha"/>
      <feGaussianBlur stdDeviation="3" result="blur"/>
      <feFlood flood-opacity="0.161"/>
      <feComposite operator="in" in2="blur"/>
      <feComposite in="SourceGraphic"/>
    </filter>
  </defs>
  <g id="Grupo_1227357" data-name="Grupo 1227357" transform="translate(-821 -1167.055)">
    <g id="Grupo_1226992" data-name="Grupo 1226992" transform="translate(630 -24.557)">
      <g id="Grupo_1210290" data-name="Grupo 1210290" transform="translate(0 -2868)">
        <g id="Grupo_1207485" data-name="Grupo 1207485" transform="translate(0 396.112)">
          <g id="Grupo_1207313" data-name="Grupo 1207313" transform="translate(0 2919.5)">
            <g id="Grupo_1202212" data-name="Grupo 1202212" transform="translate(-80 -126.414)">
              <g id="Grupo_1174813" data-name="Grupo 1174813" transform="translate(280 876.414)">
                <g id="Grupo_1201680" data-name="Grupo 1201680">
                  <g id="Grupo_1201330" data-name="Grupo 1201330">
                    <g id="Grupo_1172010" data-name="Grupo 1172010">
                      <g id="Grupo_1171046" data-name="Grupo 1171046">
                        <g id="Grupo_1148525" data-name="Grupo 1148525">
                          <g transform="matrix(1, 0, 0, 1, -9, -6)" filter="url(#Trazado_982547)">
                            <g id="Trazado_982547-2" data-name="Trazado 982547" transform="translate(9 6)" fill="#fdf6e4">
                              <path d="M 42.5 83.5 C 36.96437835693359 83.5 31.59512901306152 82.41617584228516 26.54141235351562 80.27863311767578 C 21.65934181213379 78.21369171142578 17.27447128295898 75.25723266601562 13.50862312316895 71.49137878417969 C 9.742764472961426 67.72553253173828 6.786305904388428 63.34066009521484 4.721364498138428 58.45858764648438 C 2.583823442459106 53.40486907958984 1.5 48.03562164306641 1.5 42.5 C 1.5 36.96437835693359 2.583823442459106 31.59512901306152 4.721364498138428 26.54141235351562 C 6.786305904388428 21.65934181213379 9.742764472961426 17.27448272705078 13.50862312316895 13.50862312316895 C 17.27447128295898 9.742776870727539 21.65934181213379 6.786305904388428 26.54141235351562 4.721364498138428 C 31.59512901306152 2.583823442459106 36.96437835693359 1.5 42.5 1.5 C 48.03562164306641 1.5 53.40486907958984 2.583823442459106 58.45858764648438 4.721364498138428 C 63.34066009521484 6.786305904388428 67.72553253173828 9.742776870727539 71.49137878417969 13.50862312316895 C 75.25723266601562 17.27448272705078 78.21369171142578 21.65934181213379 80.27863311767578 26.54141235351562 C 82.41617584228516 31.59512901306152 83.5 36.96437835693359 83.5 42.5 C 83.5 48.03562164306641 82.41617584228516 53.40486907958984 80.27863311767578 58.45858764648438 C 78.21369171142578 63.34066009521484 75.25723266601562 67.72553253173828 71.49137878417969 71.49137878417969 C 67.72553253173828 75.25723266601562 63.34066009521484 78.21369171142578 58.45858764648438 80.27863311767578 C 53.40486907958984 82.41617584228516 48.03562164306641 83.5 42.5 83.5 Z" stroke="none"/>
                              <path d="M 42.5 3 C 37.16621398925781 3 31.99356079101562 4.043960571289062 27.125732421875 6.102882385253906 C 22.42246627807617 8.092185974121094 18.19785308837891 10.94070434570312 14.56928253173828 14.56928253173828 C 10.94070434570312 18.19785308837891 8.092185974121094 22.42246627807617 6.102882385253906 27.125732421875 C 4.043960571289062 31.99356079101562 3 37.16621398925781 3 42.5 C 3 47.83378601074219 4.043960571289062 53.00643920898438 6.102882385253906 57.874267578125 C 8.092185974121094 62.57753372192383 10.94070434570312 66.80214691162109 14.56928253173828 70.43071746826172 C 18.19785308837891 74.05929565429688 22.42246627807617 76.90781402587891 27.125732421875 78.89711761474609 C 31.99356079101562 80.95603942871094 37.16621398925781 82 42.5 82 C 47.83378601074219 82 53.00643920898438 80.95603942871094 57.874267578125 78.89711761474609 C 62.57753372192383 76.90781402587891 66.80214691162109 74.05929565429688 70.43071746826172 70.43071746826172 C 74.05929565429688 66.80214691162109 76.90781402587891 62.57753372192383 78.89711761474609 57.874267578125 C 80.95603942871094 53.00643920898438 82 47.83378601074219 82 42.5 C 82 37.16621398925781 80.95603942871094 31.99356079101562 78.89711761474609 27.125732421875 C 76.90781402587891 22.42246627807617 74.05929565429688 18.19785308837891 70.43071746826172 14.56928253173828 C 66.80214691162109 10.94070434570312 62.57753372192383 8.092185974121094 57.874267578125 6.102882385253906 C 53.00643920898438 4.043960571289062 47.83378601074219 3 42.5 3 M 42.5 0 C 65.97210693359375 0 85 19.02789306640625 85 42.5 C 85 65.97210693359375 65.97210693359375 85 42.5 85 C 19.02789306640625 85 0 65.97210693359375 0 42.5 C 0 19.02789306640625 19.02789306640625 0 42.5 0 Z" stroke="none" fill="#f5b104"/>
                            </g>
                          </g>
                        </g>
                      </g>
                    </g>
                  </g>
                </g>
              </g>
            </g>
          </g>
        </g>
      </g>
    </g>
    <g id="Grupo_1227355" data-name="Grupo 1227355" transform="translate(-330.174 -1576.162)">
      <g id="Grupo_1227356" data-name="Grupo 1227356" transform="translate(1176.076 2777.372)">
        <g id="ios-2" transform="translate(0 0)">
          <path id="Trazado_1058106" data-name="Trazado 1058106" d="M216.762,515.475a13.735,13.735,0,0,0-6.163,1.436c-4.919,2.45-7.759,7.609-7.759,14.11s2.794,11.522,7.729,13.864a14.185,14.185,0,0,0,4.7,1.218,19.156,19.156,0,0,0,2.987,0,14.185,14.185,0,0,0,4.7-1.218c4.936-2.342,7.73-7.348,7.73-13.864,0-6.5-2.84-11.66-7.759-14.11A13.737,13.737,0,0,0,216.762,515.475Zm1.958,4.583c2.953.787,5.1,3.451,5.916,7.338a16.815,16.815,0,0,1-.406,8.368c-1.286,3.869-4.077,6.053-7.469,6.018-3.392.035-6.183-2.15-7.468-6.018a16.834,16.834,0,0,1-.406-8.368c.821-3.887,2.964-6.551,5.917-7.338A9.991,9.991,0,0,1,218.72,520.058Zm-21.568-4.583a2.952,2.952,0,1,0,2.952,2.952A2.952,2.952,0,0,0,197.152,515.475Zm-2.758,9.008v21.682h5.517V524.482Zm44.312,21.636a19.929,19.929,0,0,1-6.567-1.814c-.026-.023,1.139-4.376,1.192-4.454,3.1,1.053,7.468,2.53,10.412,1.177a3.682,3.682,0,0,0,2.13-4c-.3-1.925-1.632-3.035-5.292-4.4-4.083-1.526-6.474-3.4-7.454-5.841a7.982,7.982,0,0,1-.424-4.06c.6-3.709,3.492-6.29,7.926-7.079a21.345,21.345,0,0,1,5.384,0c1.948.326,4.182,1.063,4.182,1.379,0,.117-1.141,4.142-1.2,4.231a17.31,17.31,0,0,0-5.915-1.32c-2.586-.033-5.391,1.5-4.9,4.215.35,1.7,1.435,2.529,5.427,4.151,2.94,1.2,4.351,2.021,5.56,3.248a7.621,7.621,0,0,1,2.224,5.6,7.212,7.212,0,0,1-.727,3.638q-2.113,4.572-8.6,5.3a23.184,23.184,0,0,1-3.365.037Z" transform="translate(-194.2 -515.472)" fill="#0b0a0a"/>
        </g>
      </g>
    </g>
  </g>
</svg>
