<svg xmlns="http://www.w3.org/2000/svg" xmlns:xlink="http://www.w3.org/1999/xlink" width="113" height="113" viewBox="0 0 113 113">
  <defs>
    <filter id="Trazado_982547" x="0" y="0" width="113" height="113" filterUnits="userSpaceOnUse">
      <feOffset dy="3" input="SourceAlpha"/>
      <feGaussianBlur stdDeviation="3" result="blur"/>
      <feFlood flood-opacity="0.161"/>
      <feComposite operator="in" in2="blur"/>
      <feComposite in="SourceGraphic"/>
    </filter>
  </defs>
  <g id="Grupo_1227424" data-name="Grupo 1227424" transform="translate(-271.75 -4920.73)">
    <g id="Grupo_1227040" data-name="Grupo 1227040" transform="translate(0 3640.746)">
      <g id="Grupo_1211033" data-name="Grupo 1211033" transform="translate(0 -167.853)">
        <g id="Grupo_1210937" data-name="Grupo 1210937" transform="translate(15.75 621.587)">
          <g id="Grupo_1174742" data-name="Grupo 1174742" transform="translate(-16 -280.75)">
            <g id="Grupo_1163948" data-name="Grupo 1163948" transform="translate(0 -1371)">
              <g id="Grupo_1158168" data-name="Grupo 1158168" transform="translate(281 2484)">
                <g id="Grupo_1152576" data-name="Grupo 1152576" transform="translate(0)">
                  <g id="Grupo_1148633" data-name="Grupo 1148633">
                    <g id="Grupo_1148525" data-name="Grupo 1148525">
                      <g transform="matrix(1, 0, 0, 1, -9, -6)" filter="url(#Trazado_982547)">
                        <g id="Trazado_982547-2" data-name="Trazado 982547" transform="translate(9 6)" fill="#fdf6e4">
                          <path d="M 47.5 93.5 C 41.28937149047852 93.5 35.26533508300781 92.28397369384766 29.59518623352051 89.88570404052734 C 24.11771965026855 87.56893157958984 19.19813346862793 84.25196075439453 14.97309303283691 80.02691650390625 C 10.74804019927979 75.80186462402344 7.431066513061523 70.88229370117188 5.114293098449707 65.40481567382812 C 2.716026782989502 59.73468017578125 1.5 53.71062850952148 1.5 47.5 C 1.5 41.28937149047852 2.716026782989502 35.26533508300781 5.114293098449707 29.59518623352051 C 7.431066513061523 24.11771965026855 10.74804019927979 19.19813346862793 14.97309303283691 14.97309303283691 C 19.19813346862793 10.74804019927979 24.11771965026855 7.431066513061523 29.59518623352051 5.114293098449707 C 35.26533508300781 2.716026782989502 41.28937149047852 1.5 47.5 1.5 C 53.71062850952148 1.5 59.73468017578125 2.716026782989502 65.40481567382812 5.114293098449707 C 70.88229370117188 7.431066513061523 75.80186462402344 10.74804019927979 80.02691650390625 14.97309303283691 C 84.25196075439453 19.19813346862793 87.56893157958984 24.11771965026855 89.88570404052734 29.59518623352051 C 92.28397369384766 35.26533508300781 93.5 41.28937149047852 93.5 47.5 C 93.5 53.71062850952148 92.28397369384766 59.73468017578125 89.88570404052734 65.40481567382812 C 87.56893157958984 70.88229370117188 84.25196075439453 75.80186462402344 80.02691650390625 80.02691650390625 C 75.80186462402344 84.25196075439453 70.88229370117188 87.56893157958984 65.40481567382812 89.88570404052734 C 59.73468017578125 92.28397369384766 53.71062850952148 93.5 47.5 93.5 Z" stroke="none"/>
                          <path d="M 47.5 3 C 41.49121475219727 3 35.66376876831055 4.176155090332031 30.17950439453125 6.495796203613281 C 24.88084411621094 8.736953735351562 20.12152099609375 11.94598388671875 16.03375244140625 16.03375244140625 C 11.94598388671875 20.12152099609375 8.736953735351562 24.88084411621094 6.495796203613281 30.17950439453125 C 4.176155090332031 35.66376876831055 3 41.49121475219727 3 47.5 C 3 53.50878524780273 4.176155090332031 59.33623123168945 6.495796203613281 64.82049560546875 C 8.736953735351562 70.11915588378906 11.94598388671875 74.87847900390625 16.03375244140625 78.96624755859375 C 20.12152099609375 83.05401611328125 24.88084411621094 86.26304626464844 30.17950439453125 88.50419616699219 C 35.66376876831055 90.82384490966797 41.49121475219727 92 47.5 92 C 53.50878524780273 92 59.33623123168945 90.82384490966797 64.82049560546875 88.50419616699219 C 70.11915588378906 86.26304626464844 74.87847900390625 83.05401611328125 78.96624755859375 78.96624755859375 C 83.05401611328125 74.87847900390625 86.26304626464844 70.11915588378906 88.50419616699219 64.82049560546875 C 90.82384490966797 59.33623123168945 92 53.50878524780273 92 47.5 C 92 41.49121475219727 90.82384490966797 35.66376876831055 88.50419616699219 30.17950439453125 C 86.26304626464844 24.88084411621094 83.05401611328125 20.12152099609375 78.96624755859375 16.03375244140625 C 74.87847900390625 11.94598388671875 70.11915588378906 8.736953735351562 64.82049560546875 6.495796203613281 C 59.33623123168945 4.176155090332031 53.50878524780273 3 47.5 3 M 47.5 0 C 73.7335205078125 0 95 21.2664794921875 95 47.5 C 95 73.7335205078125 73.7335205078125 95 47.5 95 C 21.2664794921875 95 0 73.7335205078125 0 47.5 C 0 21.2664794921875 21.2664794921875 0 47.5 0 Z" stroke="none" fill="#f5b104"/>
                        </g>
                      </g>
                    </g>
                  </g>
                </g>
              </g>
            </g>
          </g>
        </g>
      </g>
    </g>
    <g id="actuacion_1_" data-name="actuacion (1)" transform="translate(283.02 4908.351)">
      <g id="Grupo_1227423" data-name="Grupo 1227423" transform="translate(26.862 41.045)">
        <path id="Trazado_1058683" data-name="Trazado 1058683" d="M157.465,47.8H120.112a3.527,3.527,0,0,0-3.512,3.512V93.957a3.516,3.516,0,0,0,3.512,3.5h37.353a3.516,3.516,0,0,0,3.512-3.5V51.312A3.527,3.527,0,0,0,157.465,47.8Z" transform="translate(-116.6 -47.8)" fill="#92278f" fill-rule="evenodd"/>
        <path id="Trazado_1058684" data-name="Trazado 1058684" d="M150.049,117.635h23.932l10.069-10.069V78.649A2.851,2.851,0,0,0,181.2,75.8H150.049a2.859,2.859,0,0,0-2.849,2.849V114.8A2.864,2.864,0,0,0,150.049,117.635Z" transform="translate(-143.443 -72.362)" fill="#bfafd5" fill-rule="evenodd"/>
        <path id="Trazado_1058685" data-name="Trazado 1058685" d="M280.2,256.146h10.462l10.069-10.069V233.7h-9.246A11.319,11.319,0,0,0,280.2,245Z" transform="translate(-260.111 -210.873)" fill="#a187bf" fill-rule="evenodd"/>
        <path id="Trazado_1058686" data-name="Trazado 1058686" d="M375.369,334.5h-7.22a2.859,2.859,0,0,0-2.849,2.849v7.22Z" transform="translate(-334.762 -299.296)" fill="#62449b" fill-rule="evenodd"/>
        <path id="Trazado_1058687" data-name="Trazado 1058687" d="M335.473,100.8a5.673,5.673,0,1,1-5.673,5.673A5.675,5.675,0,0,1,335.473,100.8Z" transform="translate(-303.621 -94.292)" fill="#cdde60" fill-rule="evenodd"/>
      </g>
      <path id="Trazado_1058688" data-name="Trazado 1058688" d="M248.343,155.186a.958.958,0,1,1,0,1.916h-6.385a.958.958,0,0,1,0-1.916Zm0-24.558a.958.958,0,1,1,0,1.916H245.6a.958.958,0,1,1,0-1.916Zm0-4.028a.958.958,0,1,1,0,1.916h-6.164a.958.958,0,0,1,0-1.916Zm0,17.694a.958.958,0,1,1,0,1.916h-.982a.958.958,0,1,1,0-1.916Zm0-4.028a.958.958,0,0,1,0,1.916h-.8a.958.958,0,0,1,0-1.916Zm0,10.892a.958.958,0,1,1,0,1.916h-3.094a.958.958,0,0,1,0-1.916Z" transform="translate(-198.863 -75.879)" fill="#fff"/>
      <path id="Trazado_1058689" data-name="Trazado 1058689" d="M37.386,122.8A15.373,15.373,0,1,1,22,138.173,15.373,15.373,0,0,1,37.386,122.8Z" transform="translate(-6.754 -72.545)" fill="#f6851f" fill-rule="evenodd"/>
      <path id="Trazado_1058690" data-name="Trazado 1058690" d="M37.473,122.8c.319,0,.639.012.958.025v2.714a.958.958,0,1,1-1.916,0v-2.714C36.835,122.812,37.154,122.8,37.473,122.8Zm6.852,1.609a14.712,14.712,0,0,1,1.645.958l-1.363,2.345a.946.946,0,0,1-1.289.356.957.957,0,0,1-.356-1.3Zm5.968,5.268c.344.528.663,1.081.958,1.645l-2.358,1.363a.952.952,0,1,1-.958-1.645Zm2.529,7.552c.025.319.025.626.025.958s-.012.639-.025.958H50.109a.958.958,0,1,1,0-1.916Zm-1.584,7.8a14.714,14.714,0,0,1-.958,1.645l-2.358-1.363a.956.956,0,0,1-.344-1.3.946.946,0,0,1,1.3-.344Zm-26.584,1.645a15.464,15.464,0,0,1-.945-1.645l2.358-1.363a.952.952,0,0,1,1.3.356.935.935,0,0,1-.356,1.289Zm-2.53-7.539c-.012-.319-.025-.626-.025-.958s.012-.639.025-.958h2.714a.958.958,0,1,1,0,1.916Zm1.572-7.8a14.713,14.713,0,0,1,.958-1.645L27,131.039a.946.946,0,0,1,.344,1.3.956.956,0,0,1-1.3.344Zm5.28-5.968a16.893,16.893,0,0,1,1.645-.958l1.363,2.358a.949.949,0,1,1-1.645.945Z" transform="translate(-6.842 -72.545)" fill="#f7ec13" fill-rule="evenodd"/>
      <path id="Trazado_1058691" data-name="Trazado 1058691" d="M75.632,166.3A10.032,10.032,0,1,1,65.6,176.332,10.035,10.035,0,0,1,75.632,166.3Z" transform="translate(-45.001 -110.704)" fill="#fedc97" fill-rule="evenodd"/>
      <path id="Trazado_1058692" data-name="Trazado 1058692" d="M127.3,205.2l5.071-5.071a.955.955,0,1,1,1.351,1.351l-.258.258.639.626a.955.955,0,1,1-1.351,1.351l-.639-.639-.233.233.638.626a.964.964,0,0,1,0,1.351.942.942,0,0,1-1.351,0l-.639-.626-1.879,1.879a3.266,3.266,0,1,1-2.886-1.731A3.392,3.392,0,0,1,127.3,205.2Zm-1.547,1.523a1.419,1.419,0,0,0-.97.393,1.4,1.4,0,0,0-.393.97,1.419,1.419,0,0,0,.393.97,1.4,1.4,0,0,0,.97.393,1.419,1.419,0,0,0,.97-.393,1.4,1.4,0,0,0,.393-.97,1.419,1.419,0,0,0-.393-.97A1.4,1.4,0,0,0,125.754,206.72Z" transform="translate(-94.914 -140.134)" fill="#ed2024"/>
      <path id="Trazado_1058693" data-name="Trazado 1058693" d="M97.058,319.716a.958.958,0,1,1,0-1.916h10.658a.958.958,0,1,1,0,1.916Z" transform="translate(-71.756 -243.601)" fill="#ed2024"/>
      <path id="Trazado_1058694" data-name="Trazado 1058694" d="M357.6,125.558a.958.958,0,0,1,1.916,0v.27a.958.958,0,1,1-1.916,0Zm2.615,0a.958.958,0,0,1,1.916,0v.27a.958.958,0,1,1-1.916,0Z" transform="translate(-301.146 -74.124)"/>
      <path id="Trazado_1058695" data-name="Trazado 1058695" d="M350.093,148.919a.949.949,0,0,1,1.535-1.117,1.886,1.886,0,0,0,.651.553,1.873,1.873,0,0,0,1.67,0,1.763,1.763,0,0,0,.651-.553.949.949,0,0,1,1.535,1.117,3.9,3.9,0,0,1-1.326,1.13,3.694,3.694,0,0,1-3.364,0A3.873,3.873,0,0,1,350.093,148.919Z" transform="translate(-294.4 -94.134)"/>
      <path id="Trazado_1058696" data-name="Trazado 1058696" d="M335.573,218.6a5.673,5.673,0,1,1-5.673,5.673A5.675,5.675,0,0,1,335.573,218.6Z" transform="translate(-276.847 -156.582)" fill="#ed1968" fill-rule="evenodd"/>
      <path id="Trazado_1058697" data-name="Trazado 1058697" d="M357.6,243.358a.958.958,0,1,1,1.916,0v.27a.958.958,0,1,1-1.916,0Zm2.628,0a.958.958,0,0,1,1.916,0v.27a.958.958,0,0,1-1.916,0Z" transform="translate(-301.146 -177.459)"/>
      <path id="Trazado_1058698" data-name="Trazado 1058698" d="M351.628,267.852a.949.949,0,0,1-1.535-1.117,3.9,3.9,0,0,1,1.326-1.13,3.729,3.729,0,0,1,4.7,1.13.944.944,0,1,1-1.523,1.117,1.886,1.886,0,0,0-.651-.553,1.941,1.941,0,0,0-.835-.2,1.745,1.745,0,0,0-.835.2A2.141,2.141,0,0,0,351.628,267.852Z" transform="translate(-294.4 -197.46)"/>
      <path id="Trazado_1058699" data-name="Trazado 1058699" d="M78.654,167.428c-1.461,0-1.977-.6-1.977-3.328,0,2.529-.258,3.328-1.977,3.328,1.707,0,1.977.872,1.977,2.787C76.677,168.52,76.947,167.428,78.654,167.428Z" transform="translate(-52.983 -108.774)" fill="#fff" fill-rule="evenodd"/>
      <path id="Trazado_1058700" data-name="Trazado 1058700" d="M145.961,178.2a2.161,2.161,0,1,1-2.161,2.161A2.164,2.164,0,0,1,145.961,178.2Z" transform="translate(-113.598 -121.143)" fill="#fff" fill-rule="evenodd"/>
      <path id="Trazado_1058701" data-name="Trazado 1058701" d="M137.131,213a.933.933,0,1,1-.933.933A.933.933,0,0,1,137.131,213Z" transform="translate(-106.93 -151.669)" fill="#fff" fill-rule="evenodd"/>
      <path id="Trazado_1058702" data-name="Trazado 1058702" d="M57.228,70.393a.949.949,0,1,1-1.535-1.117,3.749,3.749,0,0,1,6.041,0,.944.944,0,1,1-1.523,1.117A1.865,1.865,0,0,0,57.228,70.393ZM56.454,65.9a.958.958,0,1,1,1.916,0v.27a.958.958,0,1,1-1.916,0Zm2.628,0A.958.958,0,1,1,61,65.9v.27a.958.958,0,1,1-1.916,0Zm-.356-4.826A6.631,6.631,0,1,1,52.1,67.7a6.627,6.627,0,0,1,6.631-6.631Zm3.328,3.291a4.723,4.723,0,1,0,0,6.68A4.728,4.728,0,0,0,62.054,64.364Zm-6.361-9.578a.949.949,0,0,1,1.535-1.117,1.853,1.853,0,0,0,2.972,0,.957.957,0,0,1,1.326-.209.946.946,0,0,1,.209,1.326A3.755,3.755,0,0,1,55.693,54.786Zm.761-3.352a.958.958,0,1,1,1.916,0v.27a.958.958,0,0,1-1.916,0Zm2.615,0a.958.958,0,1,1,1.916,0v.27a.958.958,0,1,1-1.916,0ZM25.3,76.115a.958.958,0,1,1,0-1.916H35.96a.958.958,0,1,1,0,1.916Zm7.085-11.051,5.071-5.071a.955.955,0,0,1,1.351,1.351l-.258.258.639.626a.955.955,0,0,1-1.351,1.351l-.639-.639-.233.233.639.626a.964.964,0,0,1,0,1.351.942.942,0,0,1-1.351,0l-.639-.626L33.738,66.4a3.283,3.283,0,1,1-1.351-1.338ZM30.84,66.586A1.367,1.367,0,1,0,32.2,67.949,1.371,1.371,0,0,0,30.84,66.586Zm-6.594-13.9.884,1.523a.949.949,0,1,1-1.645.945l-.872-1.51a14.732,14.732,0,0,0-3.978,3.966l1.523.884a.946.946,0,0,1,.344,1.3.956.956,0,0,1-1.3.344l-1.523-.884a14.121,14.121,0,0,0-1.449,5.427h1.756a.958.958,0,1,1,0,1.916H16.24a14.4,14.4,0,0,0,1.449,5.427l1.523-.884a.952.952,0,0,1,1.3.356.935.935,0,0,1-.356,1.289l-1.523.884a15.3,15.3,0,0,0,1.793,2.186,14.432,14.432,0,0,0,22.188-2.186l-1.523-.884a.956.956,0,0,1-.344-1.3.946.946,0,0,1,1.3-.344l1.523.884A14.4,14.4,0,0,0,45.022,66.6H43.266a.958.958,0,1,1,0-1.916h1.756a14.4,14.4,0,0,0-1.449-5.427l-1.523.884a.952.952,0,0,1-.958-1.645l1.523-.884a14.515,14.515,0,0,0-3.966-3.966l-.884,1.523a.946.946,0,0,1-1.289.356.957.957,0,0,1-.356-1.3L37,52.7a14.18,14.18,0,0,0-5.427-1.449v1.756a.958.958,0,0,1-1.916,0V51.249a14.167,14.167,0,0,0-5.415,1.437Zm7.331-3.352a16.335,16.335,0,0,1,0,32.613v1.535a1.908,1.908,0,0,0,1.891,1.891H56.454V79.111a3.8,3.8,0,0,1,3.794-3.794h6.262V47.332a1.892,1.892,0,0,0-1.891-1.891H33.468a1.908,1.908,0,0,0-1.891,1.891Zm-1.9,32.6a18.614,18.614,0,0,1-1.854-.209V87.19a2.568,2.568,0,0,0,2.554,2.554H67.727a2.568,2.568,0,0,0,2.554-2.554V44.557A2.568,2.568,0,0,0,67.727,42H30.373a2.568,2.568,0,0,0-2.554,2.554v4.985a13.388,13.388,0,0,1,1.854-.209v-2a3.8,3.8,0,0,1,3.794-3.794H64.62a3.8,3.8,0,0,1,3.794,3.794v28.93a.967.967,0,0,1-.282.675c-3.364,3.34-6.7,6.741-10.057,10.069a.971.971,0,0,1-.663.27H33.468a3.8,3.8,0,0,1-3.794-3.794Zm-3.757-.663a16.342,16.342,0,0,1,0-31.287V44.557A4.465,4.465,0,0,1,30.373,40.1H67.727a4.465,4.465,0,0,1,4.457,4.457V87.2a4.465,4.465,0,0,1-4.457,4.457H30.373A4.465,4.465,0,0,1,25.916,87.2ZM49.48,79.307a.958.958,0,0,1,0,1.916H43.095a.958.958,0,1,1,0-1.916Zm0-24.558a.958.958,0,0,1,0,1.916H46.741a.958.958,0,0,1,0-1.916Zm0-4.028a.958.958,0,0,1,0,1.916H43.316a.958.958,0,1,1,0-1.916Zm0,17.694a.958.958,0,0,1,0,1.916H48.5a.958.958,0,1,1,0-1.916Zm0-4.028a.958.958,0,0,1,0,1.916h-.8a.958.958,0,1,1,0-1.916Zm0,10.892a.958.958,0,1,1,0,1.916H46.385a.958.958,0,1,1,0-1.916Zm9.234-28.672A6.618,6.618,0,1,1,52.1,53.226,6.613,6.613,0,0,1,58.714,46.608Zm3.34,3.279a4.723,4.723,0,1,0,1.375,3.34,4.746,4.746,0,0,0-1.375-3.34Zm3.119,27.321H60.249A1.9,1.9,0,0,0,58.358,79.1v4.924Z" transform="translate(0 0)"/>
    </g>
  </g>
</svg>
