<svg xmlns="http://www.w3.org/2000/svg" xmlns:xlink="http://www.w3.org/1999/xlink" width="113" height="113" viewBox="0 0 113 113">
  <defs>
    <filter id="Trazado_982547" x="0" y="0" width="113" height="113" filterUnits="userSpaceOnUse">
      <feOffset dy="3" input="SourceAlpha"/>
      <feGaussianBlur stdDeviation="3" result="blur"/>
      <feFlood flood-opacity="0.161"/>
      <feComposite operator="in" in2="blur"/>
      <feComposite in="SourceGraphic"/>
    </filter>
    <clipPath id="clip-path">
      <path id="path2229" d="M0-682.665H61v61H0Z" transform="translate(0 682.665)"/>
    </clipPath>
  </defs>
  <g id="Grupo_1227432" data-name="Grupo 1227432" transform="translate(-899.024 -4920.73)">
    <g id="Grupo_1227042" data-name="Grupo 1227042" transform="translate(627.274 3640.746)">
      <g id="Grupo_1211033" data-name="Grupo 1211033" transform="translate(0 -167.853)">
        <g id="Grupo_1210937" data-name="Grupo 1210937" transform="translate(15.75 621.587)">
          <g id="Grupo_1174742" data-name="Grupo 1174742" transform="translate(-16 -280.75)">
            <g id="Grupo_1163948" data-name="Grupo 1163948" transform="translate(0 -1371)">
              <g id="Grupo_1158168" data-name="Grupo 1158168" transform="translate(281 2484)">
                <g id="Grupo_1152576" data-name="Grupo 1152576" transform="translate(0)">
                  <g id="Grupo_1148633" data-name="Grupo 1148633">
                    <g id="Grupo_1148525" data-name="Grupo 1148525">
                      <g transform="matrix(1, 0, 0, 1, -9, -6)" filter="url(#Trazado_982547)">
                        <g id="Trazado_982547-2" data-name="Trazado 982547" transform="translate(9 6)" fill="#fdf6e4">
                          <path d="M 47.5 93.5 C 41.28937149047852 93.5 35.26533508300781 92.28397369384766 29.59518623352051 89.88570404052734 C 24.11771965026855 87.56893157958984 19.19813346862793 84.25196075439453 14.97309303283691 80.02691650390625 C 10.74804019927979 75.80186462402344 7.431066513061523 70.88229370117188 5.114293098449707 65.40481567382812 C 2.716026782989502 59.73468017578125 1.5 53.71062850952148 1.5 47.5 C 1.5 41.28937149047852 2.716026782989502 35.26533508300781 5.114293098449707 29.59518623352051 C 7.431066513061523 24.11771965026855 10.74804019927979 19.19813346862793 14.97309303283691 14.97309303283691 C 19.19813346862793 10.74804019927979 24.11771965026855 7.431066513061523 29.59518623352051 5.114293098449707 C 35.26533508300781 2.716026782989502 41.28937149047852 1.5 47.5 1.5 C 53.71062850952148 1.5 59.73468017578125 2.716026782989502 65.40481567382812 5.114293098449707 C 70.88229370117188 7.431066513061523 75.80186462402344 10.74804019927979 80.02691650390625 14.97309303283691 C 84.25196075439453 19.19813346862793 87.56893157958984 24.11771965026855 89.88570404052734 29.59518623352051 C 92.28397369384766 35.26533508300781 93.5 41.28937149047852 93.5 47.5 C 93.5 53.71062850952148 92.28397369384766 59.73468017578125 89.88570404052734 65.40481567382812 C 87.56893157958984 70.88229370117188 84.25196075439453 75.80186462402344 80.02691650390625 80.02691650390625 C 75.80186462402344 84.25196075439453 70.88229370117188 87.56893157958984 65.40481567382812 89.88570404052734 C 59.73468017578125 92.28397369384766 53.71062850952148 93.5 47.5 93.5 Z" stroke="none"/>
                          <path d="M 47.5 3 C 41.49121475219727 3 35.66376876831055 4.176155090332031 30.17950439453125 6.495796203613281 C 24.88084411621094 8.736953735351562 20.12152099609375 11.94598388671875 16.03375244140625 16.03375244140625 C 11.94598388671875 20.12152099609375 8.736953735351562 24.88084411621094 6.495796203613281 30.17950439453125 C 4.176155090332031 35.66376876831055 3 41.49121475219727 3 47.5 C 3 53.50878524780273 4.176155090332031 59.33623123168945 6.495796203613281 64.82049560546875 C 8.736953735351562 70.11915588378906 11.94598388671875 74.87847900390625 16.03375244140625 78.96624755859375 C 20.12152099609375 83.05401611328125 24.88084411621094 86.26304626464844 30.17950439453125 88.50419616699219 C 35.66376876831055 90.82384490966797 41.49121475219727 92 47.5 92 C 53.50878524780273 92 59.33623123168945 90.82384490966797 64.82049560546875 88.50419616699219 C 70.11915588378906 86.26304626464844 74.87847900390625 83.05401611328125 78.96624755859375 78.96624755859375 C 83.05401611328125 74.87847900390625 86.26304626464844 70.11915588378906 88.50419616699219 64.82049560546875 C 90.82384490966797 59.33623123168945 92 53.50878524780273 92 47.5 C 92 41.49121475219727 90.82384490966797 35.66376876831055 88.50419616699219 30.17950439453125 C 86.26304626464844 24.88084411621094 83.05401611328125 20.12152099609375 78.96624755859375 16.03375244140625 C 74.87847900390625 11.94598388671875 70.11915588378906 8.736953735351562 64.82049560546875 6.495796203613281 C 59.33623123168945 4.176155090332031 53.50878524780273 3 47.5 3 M 47.5 0 C 73.7335205078125 0 95 21.2664794921875 95 47.5 C 95 73.7335205078125 73.7335205078125 95 47.5 95 C 21.2664794921875 95 0 73.7335205078125 0 47.5 C 0 21.2664794921875 21.2664794921875 0 47.5 0 Z" stroke="none" fill="#f5b104"/>
                        </g>
                      </g>
                    </g>
                  </g>
                </g>
              </g>
            </g>
          </g>
        </g>
      </g>
    </g>
    <g id="g2217" transform="translate(925.021 5626.393)">
      <path id="path2219" d="M266.4-270.381h7.75v-11.606H266.4Z" transform="translate(-242.591 -364.872)" fill="#6e61b6"/>
      <path id="path2221" d="M266.4-270.381h3v-11.606h-3Z" transform="translate(-242.592 -364.872)" fill="#6354b1"/>
      <path id="path2223" d="M266.4-270.381h7.75v-11.606H266.4Z" transform="translate(-242.591 -364.872)" fill="none" stroke="#000" stroke-linecap="round" stroke-linejoin="round" stroke-miterlimit="10" stroke-width="1.5"/>
      <g id="g2225" transform="translate(0 -682.665)">
        <g id="g2227" clip-path="url(#clip-path)">
          <g id="g2233" transform="translate(4.178 6.469)">
            <path id="path2235" d="M-479-273.115h-47.006V-298.14a1.776,1.776,0,0,1,1.776-1.776h43.453A1.776,1.776,0,0,1-479-298.14Z" transform="translate(526.008 299.917)" fill="#fed402"/>
          </g>
          <g id="g2237" transform="translate(4.178 6.469)">
            <path id="path2239" d="M-69.617,0h-5.055a1.776,1.776,0,0,0-1.776,1.777V26.8h5.055V1.777A1.777,1.777,0,0,1-69.617,0" transform="translate(76.449)" fill="#fac600"/>
          </g>
          <g id="g2241" transform="translate(4.178 6.469)">
            <path id="path2243" d="M-479-77.351v-5.814a1.777,1.777,0,0,0-1.776-1.777h-43.453a1.777,1.777,0,0,0-1.776,1.777V-58.14H-479V-73.18" transform="translate(526.008 84.941)" fill="none" stroke="#000" stroke-linecap="round" stroke-linejoin="round" stroke-miterlimit="10" stroke-width="1.5"/>
          </g>
          <g id="g2245" transform="translate(4.178 31.598)">
            <path id="path2247" d="M-479-54.7h-45.229a1.776,1.776,0,0,1-1.776-1.776v-3.592H-479Z" transform="translate(526.008 60.069)" fill="#8379c1"/>
          </g>
          <g id="g2249" transform="translate(4.178 31.598)">
            <path id="path2251" d="M-169.906-54.7h30.332v-5.368H-186.58v3.592A1.776,1.776,0,0,0-184.8-54.7h10.727" transform="translate(186.58 60.069)" fill="none" stroke="#000" stroke-linecap="round" stroke-linejoin="round" stroke-miterlimit="10" stroke-width="1.5"/>
          </g>
          <g id="g2253" transform="translate(15.494 44.075)">
            <path id="path2255" d="M-248.373-36.96h-23.781a.592.592,0,0,1-.592-.592V-39.4a1.184,1.184,0,0,1,1.184-1.184h23.189Z" transform="translate(272.746 40.587)" fill="#8379c1"/>
          </g>
          <g id="g2257" transform="translate(15.494 44.075)">
            <path id="path2259" d="M-248.373-36.96h-23.781a.592.592,0,0,1-.592-.592V-39.4a1.184,1.184,0,0,1,1.184-1.184h23.189Z" transform="translate(272.746 40.587)" fill="none" stroke="#000" stroke-linecap="round" stroke-linejoin="round" stroke-miterlimit="10" stroke-width="1.5"/>
          </g>
          <g id="g2261" transform="translate(18.085 6.469)">
            <path id="path2263" d="M0,0,1.412,2.819A1.777,1.777,0,0,0,3,3.8H16.2a1.777,1.777,0,0,0,1.59-.984L19.195,0Z" fill="#8379c1"/>
          </g>
          <g id="g2265" transform="translate(18.085 6.469)">
            <path id="path2267" d="M-54.728-28.724l-1.412-2.819H-60.1l1.412,2.819a1.777,1.777,0,0,0,1.588.981h3.958a1.776,1.776,0,0,1-1.588-.981" transform="translate(60.099 31.543)" fill="#6e61b6"/>
          </g>
          <g id="g2269" transform="translate(18.085 6.469)">
            <path id="path2271" d="M0,0,1.412,2.819A1.777,1.777,0,0,0,3,3.8H16.2a1.777,1.777,0,0,0,1.59-.984L19.195,0Z" fill="none" stroke="#000" stroke-linecap="round" stroke-linejoin="round" stroke-miterlimit="10" stroke-width="1.5"/>
          </g>
          <g id="g2273" transform="translate(36.66 23.869)">
            <path id="path2275" d="M-226.811-312.507h-21.063a1.194,1.194,0,0,1-1.194-1.194V-341.98a1.194,1.194,0,0,1,1.194-1.194h21.063a1.194,1.194,0,0,1,1.194,1.194V-313.7a1.194,1.194,0,0,1-1.194,1.194" transform="translate(249.069 343.174)" fill="#d8ecfe"/>
          </g>
          <g id="g2277" transform="translate(36.66 23.869)">
            <path id="path2279" d="M-40.675-300.342v-28.279a1.194,1.194,0,0,1,1.194-1.194h-3.992a1.194,1.194,0,0,0-1.194,1.194v28.279a1.194,1.194,0,0,0,1.194,1.194h3.992a1.194,1.194,0,0,1-1.194-1.194" transform="translate(44.667 329.815)" fill="#c4e2ff"/>
          </g>
          <g id="g2281" transform="translate(36.66 23.869)">
            <path id="path2283" d="M-201.944-312.507h2.44a1.194,1.194,0,0,0,1.194-1.194V-341.98a1.194,1.194,0,0,0-1.194-1.194h-21.063a1.194,1.194,0,0,0-1.194,1.194V-313.7a1.194,1.194,0,0,0,1.194,1.194h14.453" transform="translate(221.761 343.174)" fill="none" stroke="#000" stroke-linecap="round" stroke-linejoin="round" stroke-miterlimit="10" stroke-width="1.5"/>
          </g>
          <g id="g2285" transform="translate(45.809 51.186)">
            <path id="path2287" d="M0,0H5.154" fill="none" stroke="#000" stroke-linecap="round" stroke-linejoin="round" stroke-miterlimit="10" stroke-width="1.5"/>
          </g>
          <g id="g2289" transform="translate(44.005 23.869)">
            <path id="path2291" d="M0,0,.737,2.211a1.289,1.289,0,0,0,1.222.881H6.8a1.289,1.289,0,0,0,1.222-.881L8.762,0Z" fill="#8379c1"/>
          </g>
          <g id="g2293" transform="translate(44.005 23.869)">
            <path id="path2295" d="M0,0,.737,2.211a1.289,1.289,0,0,0,1.222.881H6.8a1.289,1.289,0,0,0,1.222-.881L8.762,0Z" fill="none" stroke="#000" stroke-linecap="round" stroke-linejoin="round" stroke-miterlimit="10" stroke-width="1.5"/>
          </g>
          <g id="g2297" transform="translate(42.697 33.09)">
            <path id="path2299" d="M-115.947-57.973a5.689,5.689,0,0,1-5.689,5.689,5.689,5.689,0,0,1-5.689-5.689,5.689,5.689,0,0,1,5.689-5.689,5.689,5.689,0,0,1,5.689,5.689" transform="translate(127.325 63.662)" fill="#fd4755"/>
          </g>
          <g id="g2301" transform="translate(42.697 33.09)">
            <path id="path2303" d="M-40.866-57.973A5.691,5.691,0,0,1-37.182-63.3a5.675,5.675,0,0,0-2.005-.364,5.689,5.689,0,0,0-5.689,5.689,5.689,5.689,0,0,0,5.689,5.689,5.675,5.675,0,0,0,2.005-.364,5.691,5.691,0,0,1-3.684-5.325" transform="translate(44.876 63.662)" fill="#fb2b3a"/>
          </g>
          <g id="g2305" transform="translate(42.697 33.09)">
            <path id="path2307" d="M-115.947-57.973a5.689,5.689,0,0,1-5.689,5.689,5.689,5.689,0,0,1-5.689-5.689,5.689,5.689,0,0,1,5.689-5.689A5.689,5.689,0,0,1-115.947-57.973Z" transform="translate(127.325 63.662)" fill="none" stroke="#000" stroke-linecap="round" stroke-linejoin="round" stroke-miterlimit="10" stroke-width="1.5"/>
          </g>
          <g id="g2309" transform="translate(46.355 36.432)">
            <path id="path2311" d="M-46.614-21.952l-4.262-2.131a.216.216,0,0,0-.312.193v4.262a.216.216,0,0,0,.312.193l4.262-2.131a.215.215,0,0,0,0-.385" transform="translate(51.188 24.106)" fill="#fff"/>
          </g>
          <g id="g2313" transform="translate(46.355 36.432)">
            <path id="path2315" d="M-46.614-21.952l-4.262-2.131a.216.216,0,0,0-.312.193v4.262a.216.216,0,0,0,.312.193l4.262-2.131A.215.215,0,0,0-46.614-21.952Z" transform="translate(51.188 24.106)" fill="none" stroke="#000" stroke-linecap="round" stroke-linejoin="round" stroke-miterlimit="10" stroke-width="1.5"/>
          </g>
          <g id="g2317" transform="translate(0.894 29.23)">
            <path id="path2319" d="M-109.911-218.6H-119.5A1.194,1.194,0,0,1-120.7-219.8v-19.064a1.194,1.194,0,0,1,1.194-1.194h9.592a1.194,1.194,0,0,1,1.194,1.194V-219.8a1.194,1.194,0,0,1-1.194,1.194" transform="translate(120.697 240.057)" fill="#97d729"/>
          </g>
          <g id="g2321" transform="translate(0.894 29.23)">
            <path id="path2323" d="M-30.962-206.44V-225.5a1.194,1.194,0,0,1,1.194-1.194h-3.038A1.194,1.194,0,0,0-34-225.5v19.064a1.194,1.194,0,0,0,1.194,1.194h3.038a1.194,1.194,0,0,1-1.194-1.194" transform="translate(34 226.698)" fill="#8bc727"/>
          </g>
          <g id="g2325" transform="translate(0.894 29.23)">
            <path id="path2327" d="M-109.911-218.6H-119.5A1.194,1.194,0,0,1-120.7-219.8v-19.064a1.194,1.194,0,0,1,1.194-1.194h9.592a1.194,1.194,0,0,1,1.194,1.194V-219.8A1.194,1.194,0,0,1-109.911-218.6Z" transform="translate(120.697 240.057)" fill="none" stroke="#000" stroke-linecap="round" stroke-linejoin="round" stroke-miterlimit="10" stroke-width="1.5"/>
          </g>
          <g id="g2329" transform="translate(5.491 47.339)">
            <path id="path2331" d="M0,0H2.786" fill="none" stroke="#000" stroke-linecap="round" stroke-linejoin="round" stroke-miterlimit="10" stroke-width="1.5"/>
          </g>
          <g id="g2333" transform="translate(4.515 29.23)">
            <path id="path2335" d="M0,0V2.464a.6.6,0,0,0,.6.6H4.14a.6.6,0,0,0,.6-.6V0Z" fill="#8379c1"/>
          </g>
          <g id="g2337" transform="translate(4.515 29.23)">
            <path id="path2339" d="M0,0V2.464a.6.6,0,0,0,.6.6H4.14a.6.6,0,0,0,.6-.6V0Z" fill="none" stroke="#000" stroke-linecap="round" stroke-linejoin="round" stroke-miterlimit="10" stroke-width="1.5"/>
          </g>
          <g id="g2341" transform="translate(4.675 37.4)">
            <path id="path2343" d="M-42.834-18.989l-3.644-1.822a.386.386,0,0,0-.559.346v3.644a.386.386,0,0,0,.559.346l3.644-1.822a.386.386,0,0,0,0-.691" transform="translate(47.037 20.852)" fill="#fd4755"/>
          </g>
          <g id="g2345" transform="translate(4.675 37.4)">
            <path id="path2347" d="M-42.834-18.989l-3.644-1.822a.386.386,0,0,0-.559.346v3.644a.386.386,0,0,0,.559.346l3.644-1.822A.386.386,0,0,0-42.834-18.989Z" transform="translate(47.037 20.852)" fill="none" stroke="#000" stroke-linecap="round" stroke-linejoin="round" stroke-miterlimit="10" stroke-width="1.5"/>
          </g>
          <g id="g2349" transform="translate(21.456 14.731)">
            <path id="path2351" d="M-126.866-63.432a6.225,6.225,0,0,1-6.225,6.225,6.225,6.225,0,0,1-6.225-6.225,6.225,6.225,0,0,1,6.225-6.225,6.225,6.225,0,0,1,6.225,6.225" transform="translate(139.316 69.657)" fill="#fd4755"/>
          </g>
          <g id="g2353" transform="translate(21.456 14.731)">
            <path id="path2355" d="M-41.19-63.432a6.226,6.226,0,0,1,4.2-5.887,6.213,6.213,0,0,0-2.021-.337,6.225,6.225,0,0,0-6.225,6.225,6.225,6.225,0,0,0,6.225,6.225,6.213,6.213,0,0,0,2.021-.337,6.226,6.226,0,0,1-4.2-5.887" transform="translate(45.232 69.657)" fill="#fb2b3a"/>
          </g>
          <g id="g2357" transform="translate(21.456 14.731)">
            <path id="path2359" d="M-126.866-63.432a6.225,6.225,0,0,1-6.225,6.225,6.225,6.225,0,0,1-6.225-6.225,6.225,6.225,0,0,1,6.225-6.225A6.225,6.225,0,0,1-126.866-63.432Z" transform="translate(139.316 69.657)" fill="none" stroke="#000" stroke-linecap="round" stroke-linejoin="round" stroke-miterlimit="10" stroke-width="1.5"/>
          </g>
          <g id="g2361" transform="translate(25.459 18.387)">
            <path id="path2363" d="M-51-24.019l-4.664-2.332a.236.236,0,0,0-.341.211v4.664a.236.236,0,0,0,.341.211L-51-23.6a.236.236,0,0,0,0-.422" transform="translate(56.007 26.376)" fill="#fff"/>
          </g>
          <g id="g2365" transform="translate(25.459 18.387)">
            <path id="path2367" d="M-51-24.019l-4.664-2.332a.236.236,0,0,0-.341.211v4.664a.236.236,0,0,0,.341.211L-51-23.6A.236.236,0,0,0-51-24.019Z" transform="translate(56.007 26.376)" fill="none" stroke="#000" stroke-linecap="round" stroke-linejoin="round" stroke-miterlimit="10" stroke-width="1.5"/>
          </g>
        </g>
      </g>
    </g>
  </g>
</svg>
