<svg xmlns="http://www.w3.org/2000/svg" width="295" height="300.302" viewBox="0 0 295 300.302">
  <g id="Grupo_1227462" data-name="Grupo 1227462" transform="translate(-1124.656 -930)">
    <g id="Grupo_1210964" data-name="Grupo 1210964" transform="translate(1122.656 930)">
      <path id="un-nino-se-sienta-frente-una-computadora-portatil-con-auriculares-en-la-cabeza" d="M0,0H295V300.3H0Z" transform="translate(2)" fill="#281761"/>
    </g>
    <g id="Grupo_1227322" data-name="Grupo 1227322" transform="translate(10.498 19.934)">
      <g id="android-6" transform="translate(1183.656 973.444)">
        <g id="Grupo_1227321" data-name="Grupo 1227321" transform="translate(0 2.102)">
          <path id="Trazado_1058081" data-name="Trazado 1058081" d="M98.551,207.092A10.907,10.907,0,0,1,109.458,218v46.788a10.907,10.907,0,0,1-21.813,0V218a10.907,10.907,0,0,1,10.906-10.906Z" transform="translate(-45.153 -104.203)" fill="#a4c639"/>
          <path id="Trazado_1058082" data-name="Trazado 1058082" d="M69.353,133.645c-.036.414-.067.832-.067,1.255v70.888a13.62,13.62,0,0,0,13.526,13.765H154.9a13.621,13.621,0,0,0,13.526-13.765V134.9c0-.423-.015-.842-.051-1.255Z" transform="translate(-40.855 -87.009)" fill="#a4c639"/>
          <path id="Trazado_1058083" data-name="Trazado 1058083" d="M134.769,175.642a10.907,10.907,0,0,1,10.907,10.907v46.788a10.907,10.907,0,0,1-21.813,0V186.549a10.907,10.907,0,0,1,10.906-10.906ZM43.071,125.7a10.907,10.907,0,0,1,10.906,10.907v46.788a10.907,10.907,0,1,1-21.813,0V136.606A10.907,10.907,0,0,1,43.071,125.7Zm134.19,0a10.907,10.907,0,0,1,10.906,10.907v46.788a10.907,10.907,0,1,1-21.813,0V136.606A10.908,10.908,0,0,1,177.261,125.7ZM60.981,114.733c.3-21.774,19.308-39.627,43.7-41.98h10.961c24.4,2.354,43.4,20.207,43.7,41.98Z" transform="translate(-32.164 -72.753)" fill="#a4c639"/>
        </g>
        <path id="Trazado_1058084" data-name="Trazado 1058084" d="M74.743,70.009,86.248,89.937m79.278-19.928L154.02,89.937" transform="translate(-42.132 -70.009)" fill="none" stroke="#a4c639" stroke-linecap="round" stroke-linejoin="round" stroke-width="3"/>
        <path id="Trazado_1058085" data-name="Trazado 1058085" d="M111.428,100.4a5.644,5.644,0,0,1-11.285.031V100.4a5.644,5.644,0,0,1,11.285-.031Zm42.121,0a5.644,5.644,0,0,1-11.285.031V100.4a5.644,5.644,0,0,1,11.285-.031Z" transform="translate(-48.079 -75.829)" fill="#fff"/>
      </g>
    </g>
  </g>
</svg>
