<svg xmlns="http://www.w3.org/2000/svg" xmlns:xlink="http://www.w3.org/1999/xlink" width="295" height="300.302" viewBox="0 0 295 300.302">
  <defs>
    <clipPath id="clip-path">
      <rect id="Rectángulo_422645" data-name="Rectángulo 422645" width="174" height="127" rx="14" transform="translate(1329.656 1260.348)" fill="#fff" stroke="#707070" stroke-width="1"/>
    </clipPath>
  </defs>
  <g id="Grupo_1227461" data-name="Grupo 1227461" transform="translate(-1124.656 -2659.426)">
    <g id="Grupo_1227325" data-name="Grupo 1227325" transform="translate(1122.656 2659.426)">
      <path id="un-nino-se-sienta-frente-una-computadora-portatil-con-auriculares-en-la-cabeza" d="M0,0H295V300.3H0Z" transform="translate(2)" fill="#281761"/>
    </g>
    <g id="Grupo_1227327" data-name="Grupo 1227327" transform="translate(28.5)">
      <g id="Enmascarar_grupo_1181316" data-name="Enmascarar grupo 1181316" transform="translate(-173 1485.652)" clip-path="url(#clip-path)">
        <g id="ios-2" transform="translate(1330.044 1241.203)">
          <path id="Trazado_1058105" data-name="Trazado 1058105" d="M0,0H173.977V173.977H0Z" fill="#fff"/>
          <path id="Trazado_1058106" data-name="Trazado 1058106" d="M247.817,515.478a32.641,32.641,0,0,0-14.646,3.412c-11.689,5.822-18.438,18.083-18.438,33.532,0,15.484,6.64,27.381,18.368,32.947a33.71,33.71,0,0,0,11.166,2.895,45.539,45.539,0,0,0,7.1,0,33.71,33.71,0,0,0,11.166-2.895c11.73-5.565,18.369-17.462,18.369-32.947,0-15.449-6.75-27.71-18.438-33.532A32.645,32.645,0,0,0,247.817,515.478Zm4.653,10.891c7.018,1.87,12.11,8.2,14.06,17.438a39.961,39.961,0,0,1-.964,19.885c-3.056,9.193-9.688,14.386-17.749,14.3-8.061.083-14.693-5.109-17.748-14.3a40.006,40.006,0,0,1-.965-19.885c1.951-9.237,7.043-15.568,14.061-17.438A23.746,23.746,0,0,1,252.47,526.369Zm-51.255-10.891a7.016,7.016,0,1,0,7.016,7.016A7.016,7.016,0,0,0,201.216,515.478Zm-6.555,21.406V588.41h13.111V536.884Zm105.3,51.418c-5.617-.962-11.02-1.707-15.607-4.312-.061-.054,2.708-10.4,2.832-10.584,7.372,2.5,17.748,6.013,24.744,2.8A8.751,8.751,0,0,0,317,566.7c-.711-4.576-3.879-7.213-12.576-10.465-9.7-3.626-15.386-8.084-17.714-13.88A18.969,18.969,0,0,1,285.7,532.7c1.431-8.815,8.3-14.947,18.837-16.822a50.719,50.719,0,0,1,12.795-.011c4.63.774,9.939,2.526,9.939,3.278,0,.277-2.713,9.842-2.852,10.054a41.139,41.139,0,0,0-14.056-3.136c-6.147-.077-12.811,3.571-11.635,10.017.832,4.039,3.409,6.01,12.9,9.865,6.987,2.842,10.34,4.8,13.214,7.719a18.111,18.111,0,0,1,5.285,13.3,17.138,17.138,0,0,1-1.728,8.647q-5.022,10.864-20.426,12.6a55.1,55.1,0,0,1-8,.087Z" transform="translate(-175.168 -464.956)" fill="#0b0a0a"/>
        </g>
      </g>
    </g>
  </g>
</svg>
